<?xml version="1.0" encoding="UTF-8"?>
<svg id="Layer_1" data-name="Layer 1" xmlns="http://www.w3.org/2000/svg" viewBox="0 0 370 100">
  <g>
    <polygon points="77.99 95.27 83.98 95.44 86.71 95.44 88.18 95.44 94.83 95.54 96.72 95.73 97.42 95.73 98.06 95.37 98.65 95.73 100.94 95.73 102.75 95.73 102.69 30.91 100.27 31.1 99.5 31.28 98.57 32.27 98.31 31.66 98.73 30.39 98.16 29.44 97.35 28.3 96.4 26.87 95.4 26.8 94.12 25.68 93.07 25.14 92.59 24.13 92 22.46 91.83 19.94 91.78 17.41 92.06 16.47 91.03 16.47 89.35 18.35 87.78 19.6 86.36 20.29 84.44 20.98 82.35 20.98 81.13 21.49 79.58 22.29 77.72 22.58 76.56 23.06 75.72 23.07 71.41 18.92 69.18 16.4 68.1 15.53 64.01 18.49 62.13 18.92 60.39 18.15 58.11 17.61 57.31 17.61 59.34 20.12 60.93 22.58 64.91 26.49 65.75 27.31 65.35 27.61 63.34 27.31 62.74 27.53 56.67 32.66 56.67 33.13 62.47 33.23 68.59 33.85 74.1 35.01 79.26 36.45 80.56 37.23 81.57 40.62 82.41 42.81 82.84 45.96 83.08 49.85 83.48 52.93 83.68 55.47 84.08 57.33 84.52 60.73 84.49 64.04 84.39 67.09 84.11 70.8 83.61 76.08 83.08 79.59 81.17 86.65 80.43 89.45 79.87 91.28 79.29 92.74 78.81 93.97 77.99 95.27" fill="#fff"/>
    <g>
      <path d="m2.74.07s.51,1.39.38,2.17-.18,2.71-.18,2.71l1.01,1.71.57,1.31,1.62,2.44.52.89,2.32,1.42,1.3,1.07-.15.55-2.07,2.31-1.34,2.9-2.79,3.95-.55,3.27,1.06,2.85,1.38,1.3,1.73.33,2.74,1.38,1.03,1.53,1.18,1.39.1,3.03.6,2.59,1.31,1.26,3.27,1.34,3.34.54,1.99.55,2.19.63.9.98,1.68,1.55,1.03,1,.95.16.91.55,1.25.85.93-.25,2.79-1.21.96-.65,1.23-.46,1.13-.24,1.06-.24,1.33-.93.6-.9.65-.89,2.51-1.33,2.04-1.11,1.31-.53.85.28.98-.1.49.38,1.65-.63,1.43-.35,1.86.55,1.36-.43,1.18.3,1.33.03,1.53-.4.96-.45,1.28-.15.9-.55,1.17-.4,1.36-.28,2.05-1.21,1.77-1.23.27-.78.72-.33.73-.2.96-.62.3-.42-6.5-1.21-4.75-.44-5.24-.07s5.04-1.41,6.54-6.7c.31-1.11-4.62-6.5-5.32-7.54,0,0,1.68.65,2.68.75s1.44.92,2.51.87,2.24-2.36,3.59-2.36c.53,0,2.11,1,2.89.84s3.12.54,4.48,3.44c1.37,2.9,3.21,3.69,5.66,5.25s3.58.37,4.62-2.57.78-4.35.78-4.35l4.63-3.65,1.54-.84.2.74-.27,1.27.13,2.91.13,1.45.91,1.81,1.19,1.44,1.14.57,1.52.9,1.17,1.87.6.99-.27,1.54.07.48,1.01-.95,1.35-.4,1.26.19.5-.49L102.51,0,2.74.07Z" fill="#c9c9c9"/>
      <path d="m2.97.64s.62-.39.99-.28.5.4.67.42.28-.7.28-.7h.55l-.08.7.5-.7h.18s-.13.52-.35.79.03.61-.25,1.06-.79,1.22-.6,1.44.57,0,.57,0c0,0,.02,1.56.08,2.25s.54,1.69.74,2.13.3,1.17,1.46,2.26,3.32,3.02,3.32,3.02c0,0-.15.19-.07.69s.13.99-.18,1.71-.89,1.31-1.04,1.37.55-1.84.55-1.84c0,0-1.11,1.99-1.44,2.51s-.96,1.66-1.85,3.03-1.28,3.05-1.42,3.49-.95,2.1-.27,4.46c.3,1.04,1.98,2.26,2.82,2.68s4.04,3.28,4.04,3.28c0,0,1.69,1.84,2.19,3.75s1.19,2.85,4.14,4.07,3.35.5,5.78,1.29c2.01.65,2.78,1.81,2.78,1.81,0,0,1.76,1.67,2.35,1.99s0,1.48,0,1.48l-.88-.34-1.86-1.37s-1.31-.85-2.15-.83-2.8-1.46-2.8-1.46l-5.6-1.36s-.64.15-.96.15-.7-.25-1.26-1.17-1.29-3.12-1.29-3.12l-.55-1.88-.6-1.44-.55-2.2-1.42-1.51-2.06-.94-2.88-1.46-.75-1.84-.35-1.52.74-3.5,1.22-1.59s.28-1.04,1.01-2.41,1.24-1.69,1.24-1.69l1.62-1.84.98-1.13-.2-.55-1.22-.86-1.56-1.37-1.04-.7-.17-.99-.15-.67-.75-.64-.44-.37-.3-.23-1.18-2.4-.18-1.54.02-2.28-.12-1.11Z" fill="#afafaf"/>
      <path d="m26.92.05h-1.35s-1.82,1.36-.85,2.76,2.18,2.11,3.95,1.66c.4-.1.22,3.31,5.83,5.87,3.32,1.51,6.02.5,6.02.5,0,0-.12,2.82,2.73,4.48s4.34,2.85,8.53,1.89c.59-.13,5.55.57,5.55.57,0,0,1.32,1.57,3.05,1.57,1.24,0,1.88,1.17,2.98,1.06s.9-.51,2.28-1.56,1.28-.95,1.88-.66,1.95.53,1.95.53c0,0,.64.29,1.06-.23s-1.06-1.69-1.06-1.69l-1.35-1.48s1.19.26,2.04-.64,3.37-2.67,3.37-2.67l1.7-2.07,1.8-1.44.64-1.3-.64-1.05-1.71-1.31-1.88-.94s-.27,1.09.1,1.95.13,1.4.37,1.97.54,1.37-.6,2.68-3.55,2.85-4.99,3.53c-1.35.64-1.71.93-2.62,1.56s-2.92,2.08-3.22,2.11-1.89.22-2.84-.16-3.68-.57-3.68-.57c0,0,5.45.58,5.94-.15.17-.25-5.5-.43-6.5-.25s-6.57-.45-6.57-.45l-4.83-2.16-2.42-2.45-.26-1.88-1.91-.47-4.53-.29-2.11-.99-1.44-1.53-1.14-1.42-.53-1.1v-.89h-2.18l-1.58-.3-.2-.54.44-.7.34-.47.42-.9Z" fill="#afafaf"/>
      <path d="m35.41,47.79s-1.76,1,.34.76,3.49-.52,3.49-.52l1.6-.95,1.63-1.75,2.29-1.44,2.31-1.31s.46.34,2.5-.37c1.16-.4,1.57,0,1.57,0l2.33-.67.74-.17,1.04.2,1.17.37,1.32-.3.86.27,2.78-.54,1.37-.34,2.31-.87,1.11-.27,1.34-.47,1.07-.54.24-.17,2.05-1.27v-1.24l1.8-.3,1.01-.87-1.47-.62-10.85-1.22-4.12-.13s2.94-1.25,4.63-3.37,1.56-2.03,1.48-2.18-1.51.05-1.68.2-1.47,1.69-2.92,2.79-1.91,1.75-1.91,1.75l-1.79.88-4.06,3.3s-.2,1.01,1.38.41,3.19-2.29,3.49-2.67,3.12-.53,3.12-.53h.8s-.63.6.96.6,2.82-.02,2.82.48-.05,1.28.38,1.43.4,1.05.4,1.05c0,0,.53.4.15.81s-1.68,1.08-1.86,1.23-.84.87-1.5,1.13c-.57.23-4.86-.08-7.58.2s-5.08.12-9.3,2.04c-2.99,1.36-3.82,2.8-4.68,3.45s-4.16,1.71-4.16,1.71Z" fill="#afafaf"/>
      <path d="m100.33.34l.77.38.54.54-.23,1.21-.07,3.75-.35,1.88v2.86l-1.26,1.23-1.31,1.04-2.68.82-2.65,1.03-1.47,1.08-1.34.73-.75,1.14-2.14,1.93-2.95,1.04h-1.58l-1.74.51-.9.66-3.18.65-.48.25-.52.31-3.57-3.42-2.33-2.27-1.61-2.14,5.43-3.82s1.68.08.9,1.02-3.05,2.01-3.08,3.69.82,2.53.82,2.53c0,0,.28-.15.9.28s.33-.26,1.91.17c.74.2.42-.52,1.85-.28.61.1.41.2,1.28.25.59.03.22.13,1.69.1s1.99-.07,2.56.03,1.68-.15,3.23-.81,2.04-.45,3.02-1.23.36-.83,1.37-1.29.83-.73,1.42-1.2,1.96-1.59,2.95-1.96,2.2-.64,3.05-1.12,2.5-1.09,2.3-3.7.4-4.22.59-4.99-.1-1.75-.1-1.75l-.3-1.12Z" fill="#aeaeae"/>
      <path d="m76.52,23.44l3.87,3.05,1.16-1.14.74-1.91s.38-1.6-.6-.84c0,0-1.3-.76-2.02-.12s-2.81.41-2.81.41l-.34.54Z" fill="#838383"/>
      <path d="m93.12,15.03s-.05,5.86,3.84,9.52c2.32,2.18,5.55,3.55,5.55,3.55l-.05,2.51-1.17.38-1.68.1-1.07-.85-.92-1.5-.85-1.36-1.37-.6-.9-.87-.81-.52-.77-.66-.68-1.24-.3-1.58-.17-3.02v-1.51l.61-1.54.74-.84Z" fill="#aeaeae"/>
      <g>
        <path d="m102.51,98c-1.19-.08-2.39-.17-3.58-.25-.05,0-.11-.01-.16-.02-.08-.01-.18-.03-.18-.13,0-.11.12-.11.19-.11.48-.05.96-.09,1.44-.13.09,0,.19-.01.29-.04-.52-.12-.91-.61-1.51-.55.35-.18.75.06,1.12-.21-.27-.07-.49.03-.72.03-.22,0-.44,0-.66-.01-.17-.01-.26-.11-.3-.28-.06-.21.14-.14.21-.21.05-.06.13-.1.21-.15-.24-.24-.83.23-.8-.55-.51.9-1.33.55-1.98.6-2.63.18-5.26.49-7.9.56-1.07.03-2.14.05-3.21-.15,3.06.04,6.09-.2,9.12-.55,0-.04,0-.09,0-.13-2.4-.07-4.81-.14-7.21-.21,0,.03,0,.07,0,.1,1.72.07,3.44.14,5.17.2-1.76.04-3.51-.01-5.27-.1.01.12.11.06.18.13-.88.09-1.71-.04-2.55-.1-.88-.06-1.75-.13-2.63-.19-.05,0-.15.02-.15.02,0,.57-.46.28-.7.38-.16.07-.35.05-.54.08.03-.12.23-.14.17-.21-.1-.12-.25-.22-.4-.27-.09-.03-.08.11-.1.18-.04.14,0,.31-.22.35-.21.04-.28-.13-.4-.27-.1.14-.19.28-.3.4-.07.09-.2.18-.23-.01-.04-.3-.18-.2-.34-.12-.09.04-.17.09-.26.13-.12.05-.28.15-.38.03-.09-.12.1-.2.13-.34-.24-.08-.37.06-.5.22-.07.08-.12.27-.26.15-.11-.09-.15-.24.02-.37.06-.05.08-.16.12-.24-.28-.07-.33.22-.54.32.05-.27-.02-.41-.31-.34-1.39.33-2.81.32-4.22.41-2.73.18-5.47.14-8.2.16-2.35.01-4.7,0-7.05,0v.14c.58.06,1.16.14,1.74.18,1.04.08,2.08.17,3.12.22.56.03,1.17-.03,1.66.14.56.2,1.13.23,1.69.34.06.01.16.01.15.1-.02.14-.13.15-.26.14-.59-.05-1.18-.09-1.77-.14-1.65-.15-3.31-.32-4.96-.46-1.23-.11-2.46-.21-3.7-.3-.67-.05-1.34-.01-2.01-.04-2.27-.1-4.53-.1-6.8-.05-3.53.08-7.07.05-10.6.11-2.04.04-4.07-.04-6.11-.04-.57,0-1.14.12-1.71-.04,2.64-.07,5.28-.34,7.93-.18-.03-.12-.15,0-.21-.09.17-.02.34-.04.51-.05.17,0,.35.02.53.02-.03.11-.13.05-.2.14.81-.11,1.58.09,2.36-.01,0-.1-.12-.03-.15-.1-.03-.08.02-.09.08-.09.31.03.64.01.92.12.23.09.3-.3.46-.1.2.25.36.12.57.04.26-.1.58-.13.8-.02.27.13.54.13.75.05.41-.15.81-.08,1.22-.08,1.85,0,3.71.02,5.56.03.42,0,.85,0,1.28-.05-.36-.18-.76-.13-1.14-.16-1.63-.13-3.26-.38-4.89-.31-2.5.11-5-.08-7.5-.04-2.98.04-5.97.1-8.95.16-.03,0-.05-.01-.19-.05,1.34-.08,2.58-.14,3.81-.21,0-.02,0-.05,0-.07-.79,0-1.59-.05-2.38.01-.78.07-1.56,0-2.32.14-.07.01-.1-.02-.12-.06-.05-.11.03-.28-.21-.28-.32,0-.66-.02-.92.14-.21.13.04.36.09.57-.44-.05-.29-.79-.89-.68.16.45.31.91.47,1.36-.5-.14-1.03-.19-1.5-.45-.17-.1-.15-.08-.14-.3,0-.21-.23-.37-.18-.68.43.56.8,1.14,1.55,1.16-.04-.41-.3-.72-.64-.98-.15.07.1.18-.07.3,0-.87-.6-.78-1.17-.76-1.83.07-3.65.14-5.48.21-.06,0-.13,0-.19-.08.76-.04,1.52-.1,2.28-.13,1.32-.05,2.64-.1,3.96-.14.15,0,.3.05.34-.22.03-.19.19-.06.25.05.08.13.14.3.22,0,0-.02.01-.05.02-.07.03.03.06.05.08.08.05.1.12.18.22.1.1-.08,0-.18-.04-.26-.29-.61-.58-1.21-.75-1.87-.02-.08-.05-.16.02-.31.33.75.63,1.46.94,2.16.06-.32-.05-.61.01-.92.2.38.03.84.32,1.19.1-.54-.12-1.06-.06-1.67.15.54.06,1.06.32,1.49.05.09.05.21.2.2,1.15-.12,2.31-.02,3.51-.06-.2-.33-.39-.62-.55-.92-.06-.11-.21-.28-.03-.39.15-.1.23.09.34.17.16.12.31.26.5.42.09-.13,0-.35.18-.39.18-.03.26.13.36.23.2.19.35.42.6.56.21.12.41.38.59-.08.06-.15.35-.17.55-.18.27-.02.55-.02.82-.04.21-.02.32-.15.3-.36-.02-.19-.12-.28-.33-.26-.23.02-.47-.02-.7.02-.51.09-.76-.22-1.01-.57-.19-.25-.25-.38.14-.48.14-.03.3-.09.46-.14-.03-.02-.04-.03-.06-.04-.13-.06-.38.07-.38-.12,0-.24.26-.11.4-.13.13-.02.27,0,.41-.09h-.91s0-.09,0-.13c.35-.03.71-.06,1.06-.08.17-.01.34.05.47-.16.15-.25.19.19.34.09.02-.02.05-.04.05-.05q.01-.63-.65-.65c-.25,0-.5,0-.74-.02-.12,0-.23.08-.26-.21-.1-.72-.04-.93.61-.91.42.01.48-.1.48-.51,0-2.09.18-4.17.46-6.24.11-.83.09-1.67.2-2.51.17-1.34.26-2.68.38-4.02.03-.34.02-.69.05-1.03.01-.17-.09-.2-.2-.26-.67-.38-.75-.51-.58-1.26.42-1.89.78-3.79.97-5.72.06-.63.06-1.26.04-1.9,0-.08-.02-.17-.06-.23-.38-.57-.6-1.23-1.02-1.78-.3-.41-.5-.88-.77-1.31-.19-.31-.5-.55-.52-.95,0-.09-.06-.23-.01-.28.3-.31.11-.65.07-.97-.22-1.63-.45-3.27-.68-4.9-.07-.52-.17-1.03-.24-1.55-.03-.25-.24-.4-.34-.61-.33-.72-.68-1.44-1.02-2.16-.04-.08-.12-.19-.02-.26.11-.08.22,0,.29.08.18.2.34.42.56.7.07-.31.02-.52-.09-.72-.14-.25-.22-.53-.3-.81-.04-.14-.12-.33.04-.41.19-.09.28.12.37.25.23.34.32.75.67,1.06-.06-.25-.12-.5-.18-.75-.05-.24-.17-.49-.14-.72.06-.49-.26-.62-.6-.66-.54-.07-.97-.32-1.31-.71-.55-.61-1.18-1.16-1.65-1.84-.23-.33-.57-.55-.96-.69-2.28-.79-4.62-1.33-6.96-1.88-.59-.14-1.18-.26-1.77-.39-.34-.08-.48.03-.48.39,0,.38.05.76-.06,1.22-.3-.56-.45-1.08-.5-1.62-.02-.25-.12-.38-.34-.5-.42-.22-.83-.48-1.33-.77.07,1.04-.57,1.88-.57,2.86,0,.24.04.45.16.66.2.36,0,.69-.4.72-1.27.09-3.17-1.24-3.51-2.46-.17-.6-.1-1.22-.15-1.84-.05,0-.03.06-.05.09-.07.17-.09.47-.26.46-.21,0-.24-.3-.29-.49-.24-1.05.61-2.4,1.59-2.54.11-.02.22-.02.33,0,.5.05.5.05.44-.49-.59.19-1.18.3-1.8.27-.75-.04-1.36-.45-1.53-1.05-.02-.08-.06-.17-.04-.24.28-.99.18-2.05.65-3.01.56-1.17,1.12-1.51,2.46-1.28-.92-1.43-2.28-2.25-3.93-2.64-.41-.1-.82-.23-1.22-.37-.96-.34-1.66-.98-1.98-1.96-.26-.78-.67-1.51-.8-2.34-.05-.34,0-.69-.02-1.03-.1-1.87,1.02-3.2,2-4.58.57-.81,1.2-1.57,1.81-2.36.26-.34.54-.68.61-1.11.25-1.4,1.22-2.31,2.16-3.23.15-.14.31-.27.5-.44-.27-.07-.53-.09-.73-.25-.14-.11-.23,0-.33.07-.32.24-.63.49-.95.73-.31.24-.38.2-.52-.16-.1-.26-.02-.52-.08-.87-.42.53-.73,1.03-.89,1.63-.02.09.03.22-.1.23-.11.01-.15-.11-.19-.19-.05-.11-.1-.23-.1-.35-.04-.92.25-1.71.8-2.45.29-.39.57-.37.93-.15.09.05.19.08.3.1-.5-.58-1.29-.68-1.85-1.2-.32,1.05-.85,1.92-1.67,2.6-.35.29-.75.51-1.21.59-.53.1-.94-.1-1.27-.49-.11-.13-.14-.29-.09-.43.23-.76.01-1.5-.14-2.23-.19-.91-.07-1.75.5-2.5.23-.31.52-.54.94-.58.19-.02.5-.15.49-.3-.02-.24-.11-.54-.38-.67-.07-.03-.19,0-.13-.13.15-.33-.07-.58-.16-.86-.23-.66-.49-1.31-.54-2.02-.04-.47.1-.93.15-1.39.05-.44.06-.88-.08-1.3-.16-.49-.21-.99-.22-1.5h.91c-.13.44-.06.87.06,1.3.13.45.14.89-.01,1.34-.42,1.21-.08,2.3.56,3.33.08.13.16.18.3.11.1-.05.2-.1.31-.04,0,.02.01.04,0,.04-.45.43-.14.79.11,1.16.24.34.48.66.83.91.52.37.87.87,1.05,1.49.12.4.39.73.8.79.16.02.28.04.4.14.13.12.24.27.12.43-.12.17-.28.03-.41-.03-.31-.15-.61-.3-.92-.46-.1.13.02.2.09.26.17.14.33.3.53.39,1.05.47,1.84,1.34,2.86,1.83.65.32.47.83.6,1.28.01.05.02.1-.05.14-.98.44-1.56,1.31-2.24,2.08-.34.38-.32.93-.43,1.41-.22.95-.66,1.75-1.3,2.49-1.27,1.46-2.32,3.07-2.73,5.02-.09.43-.06.83.1,1.25.31.82.58,1.66.85,2.5.16.5.47.82.95,1.01.58.22,1.15.46,1.79.39.17-.02.34.03.47.13.86.65,1.96.95,2.65,1.85.39-.06.5.24.65.52.14-.11.13-.45.44-.26.07.04.05-.16.07-.25.02-.13-.03-.31.18-.31.19,0,.19.18.22.3.07.32-.02.62-.11.93-.04.13-.19.28,0,.4.22.13.24-.11.32-.21.25-.29.41-.3.57-.03.07.12.13.22-.09.23-.08,0-.16.07-.15.17,0,.09.11.06.16.08.09.04.18.07.26.12.09.05.22.09.23.21,0,.14-.14.15-.23.2-.11.05-.27.06-.18.24.32.69.06,1.38.02,2.07-.05.78-.1,1.57.04,2.34.06.3.16.51.54.41.15-.04.36-.06.47.14-.02.03-.03.06-.04.07-.64.23-.67.29-.38.9.38.8,1.09,1.25,1.8,1.71.12.08.2.03.28-.07.07-.09.14-.18.22-.24.11-.08.24-.17.37-.05.11.1.08.23.01.34-.16.24-.09.31.18.41.61.21,1.24.25,1.85.38,1.26.27,2.52.56,3.83.47.46-.03.93.1,1.36.28.22.09.42.2.65.27.82.26,1.48.63,1.84,1.53.36.9,1.26,1.37,2.13,1.73.28.11.41.2.53.47.09.21.35.29.62.42-.18-.71.1-1.3.35-1.95-.43.09-.77.2-.98.58-.07.13-.19.36-.35.23-.11-.1-.23-.34-.1-.55.51-.81,1.16-1.43,2.18-1.51.17-.01.34.01.26-.26-.04-.12.08-.2.17-.17.51.15.82-.27,1.22-.42.34-.13.64-.38,1.08-.22-.55.32-1,.72-1.25,1.32.03.04.14.04.22.08.48.23.85.54.9,1.13.02.29.09.57.13.86.05.38.18.69.55.9.34.19.69.45.5.99.6-.18,1.02-.52,1.43-.88.32-.28.64-.57,1.05-.72.19-.07.31-.22.43-.37.26-.32.6-.46.99-.3.76.29,1.41.19,2.01-.39.18-.18.43-.3.71-.27.19.02.26-.12.37-.23.52-.56.93-1.19,1.25-1.88.06-.12.13-.24.2-.36.11-.17.25-.23.38-.02.14.22.29.16.48.06,1.43-.7,2.73-1.65,4.18-2.32.29-.13.57-.27.86-.39.09-.04.21-.08.28-.04.75.36,1.48-.08,2.22-.05.08,0,.16,0,.27-.01-.07.22-.25.22-.48.32.27,0,.46,0,.64,0,.16,0,.27.05.32-.22.05-.26.41-.15.56-.1.2.06.33,0,.48-.07.18-.08.36-.14.53-.23.48-.23.93-.25,1.4.05.56.36,1.19.31,1.8.16.54-.14,1.05-.12,1.58.04,1.12.34,2.2.28,3.21-.38.49-.32,1.02-.45,1.59-.51.14-.02.52.17.39-.28,0-.03.22-.15.32-.05.18.16.33.1.48-.01.66-.52,1.42-.68,2.23-.72.5-.02.9-.31,1.31-.56.12-.07.14-.17.1-.28-.11-.38-.1-.79-.16-1.19-.72.08-.83.71-1.09,1.28-.23-.52,0-.95.05-1.4-.39.02-.75.11-1.12,0-.63-.17-.84-.57-.56-1.16.22-.47.18-.96.16-1.46,0-.16-.07-.33,0-.49.15-.36.01-.4-.34-.44-1.53-.17-3.06-.23-4.6-.29-1.37-.05-2.75-.1-4.12.05-.15.02-.27.04-.34.19-.36.79-1.08,1.12-1.82,1.38-.78.28-1.44.72-2.02,1.3-.35.35-.76.63-1.16.92-.24.18-.51.25-.8.09.01-.04,0-.08.02-.09.73-.45,1.23-1.12,1.72-1.8.09-.12.21-.22.34-.3.64-.4,1.24-.86,1.78-1.4.1-.1.22-.21.42-.18-.12.28-.41.4-.55.64.45-.05,1.09-.44,1.3-.84.2-.38.49-.65.87-.84.72-.35,1.38-.8,2.04-1.24.62-.41.88-.98.9-1.71.01-.72.18-1.38.83-1.88,0,.1.02.17,0,.21-.36.69-.33,1.43-.31,2.18,0,.15-.01.31-.07.44-.18.4.01.46.36.44.33-.02.66,0,.99.02-.36.11-.73.06-1.1.05-.38-.02-.62.13-.77.49,1.93-.23,3.83-.48,5.76-.55-1.29.15-2.59.29-3.87.47-.65.09-1.3.19-1.95.28-.43.06-.67.41-.99.7h4.53s0,.08,0,.12c-.6,0-1.2.01-1.8,0-.96-.03-1.92.04-2.89.06-.18,0-.35.03-.52.25.52,0,1,.01,1.47,0,2.04-.06,4.07.05,6.09.25,4.83.47,9.58,1.34,14.17,2.96.7.25,1.38.53,2.03.9.21.12.43.24.59.45-.12.13-.25,0-.41.02.54,1.3.85,2.66,1.25,3.99.02.07.04.13.08.19.72,1.04.68,2.29.89,3.45.25,1.41.21,2.87.29,4.3.05,1.1.21,2.2.34,3.31.09.8.36,1.62.26,2.4-.13,1.07.47,1.96.5,2.97.01.6.18,1.19.19,1.79.02.69.12,1.37.11,2.06-.01.57.08,1.15.06,1.73-.08,1.6-.21,3.19-.3,4.79-.03.64-.05,1.29-.09,1.93-.1,1.48-.27,2.94-.39,4.42-.35,4.33-1.58,8.46-2.68,12.63-.36,1.37-1.02,2.63-1.42,3.98-.1.33-.19.63,0,.98.29-.67.4-1.42.82-2.04-.14.62-.59,1.21-.24,1.88.07-.38.14-.78.22-1.27.05.97-.31,1.85-.09,2.74.16-1.07.31-2.14.59-3.19.06.41.02.81-.04,1.22-.06.44-.11.87-.18,1.3-.07.41-.16.83-.18,1.26.99-1.92,1.3-4.08,2.02-6.09.09.19.07.37,0,.55-.47,1.19-.71,2.45-1.01,3.69-.2.86-.58,1.62-1.09,2.33-.09.12-.25.12-.32.26.22.26.43.2.65,0,.98-.94,1.82-1.98,2.35-3.25.29-.69.6-1.38.92-2.13.03,1.28-1.58,4.04-3.22,5.57h.69c-.03-.11-.23-.01-.22-.22.45.06.89.12,1.33.16,1.59.16,3.18.16,4.78.21,2.19.07,4.37.12,6.56.17.45.01.99-.36,1.15-.76.01-.03,0-.11.05-.09.48.19.62-.3.92-.47.23-.14.43-.35.64-.52.97-.83.95-.83,1.02-2.1.15-3.13.33-6.26.48-9.39.07-1.59.11-3.19.14-4.78.03-1.82.05-3.63.03-5.45-.02-2.32-.08-4.65-.26-6.96-.08-1.12-.2-2.23-.47-3.33-.02-.07-.06-.14-.04-.2.36-.99.02-1.97-.08-2.95-.22-2.11-.57-4.21-.97-6.3-.79-4.08-1.75-8.13-2.94-12.11-.13-.42-.24-.84-.39-1.36.63,1.09,2.93,10.24,3.73,14.61.9,4.91,1.18,9.89,1.75,14.83-.21-.17-.11-.41-.17-.56,0,.81-.02,1.65,0,2.5.07,2.74.05,5.48-.02,8.21-.08,2.91-.19,5.83-.38,8.73-.12,1.78-.24,3.57-.3,5.35-.01.36-.04.73-.1,1.08-.09.52.08.91.44,1.27.04-.23-.19-.41-.1-.68.26.4.44.84.77,1.16.07.07.11.26.28.12.17-.13.06-.23-.01-.35-.18-.32-.36-.64-.36-1.02.15.29.29.58.45.87.05.09.1.24.24.16.16-.08.02-.19-.03-.27-.26-.48-.52-.94-.57-1.51-.06-.65-.41-1.22-.58-1.84-.02-.08-.08-.15-.03-.25.52.85.73,1.85,1.34,2.67-.11-1.41-.07-2.81.07-4.29.14,1.66-.04,3.27.24,4.89.68-.73.2-1.55.3-2.31.02-.2,0-.4.06-.6.01.16.01.33.04.49.02.11,0,.27.19.27.22,0,.12-.17.13-.27.09-.77.12-1.55.3-2.31.04,1-.13,1.98-.12,2.98.18-.88.22-1.77.43-2.64,0,.91-.13,1.82-.14,2.75.13-.37.27-.74.4-1.11.15-.43.29-.86.44-1.28.05-.13.08-.29.25-.33-.19.64-.39,1.29-.58,1.93.02,0,.04.02.06.03.1-.14.21-.28.37-.5-.22,1.12-.8,1.97-1.17,2.91.27-.22.41-.52.56-.8.34-.63.46-1.34.76-1.98v.83c-.32.84-.68,1.65-1.25,2.37-.25.32.02.74.43.77.27.02.55-.02.82.07v.17c-.46-.06-.93-.02-1.39,0-.14,0-.3,0-.27.21.03.21.23.16.32.13.44-.17.89-.04,1.34-.09v.33c-.52-.02-1.04-.04-1.56-.06-.13,0-.27,0-.3.15-.03.16.14.18.24.22.18.06.37.08.56.11.36.07.7-.07,1.05-.09v.5c-1.14.2-2.3.16-3.44.39,1.15.09,2.29.18,3.44.27v.08Zm-73.35-3c-.11-.08-.22-.14-.37-.14-1.14.01-2.28.02-3.42.03-.13,0-.28,0-.27.17,0,.16.15.12.26.12,1.18-.07,2.36-.05,3.55-.06.09,0,.24.07.25-.12.44.23.89.1,1.34.04-.4-.15-.82-.13-1.24-.15-.03,0-.06.08-.09.12Zm30.26-3.85c-.14,0-.1.15-.17.2.06.07.14.07.22.07.11,0,.22-.02.33-.02.62,0,1.24,0,1.85.12-1.04.08-2.1-.01-3.13.18,2,.08,3.99.14,5.99,0-.22-.64-.32-.72-.94-.72-.97,0-1.95,0-2.92,0-.12,0-.31-.03-.36.04-.26.37-.57.15-.87.12l.66-.11c-.48.09-1.12-.37-1.42.39.23.11.34-.02.45-.17.08-.11.15-.25.31-.1Zm-26.44-.07c-.1-.11-.08-.06-.24.07-.16.13-.24.26-.13.39.11.13.32.18.48.27.19-.4.59-.14.89-.3-.35-.04-.67-.08-1-.12-.1-.01-.22-.02-.09-.16.41.16.85-.04,1.26.15.33.15.7.18,1.07.18,1.92,0,3.84,0,5.76,0,.16,0,.34-.02.49.02.54.12.65.05.79-.46.05-.19,0-.21-.16-.21-.44.02-.88.05-1.32.05-1.48.01-2.97,0-4.45.03-.43,0-.84.08-1.28,0-.57-.1-1.18.01-1.76-.06-.14-.02-.24.03-.32.14Zm30.23-2.7c-.36-.19-.75-.11-1.12-.08-.68.05-1.36.1-2.03-.01.93-.16,1.88-.07,2.88-.15-.15-.18-.28-.26-.43-.25-.68.06-1.37.03-2.05.05-.22,0-.47.14-.64.06-.55-.25-1.11,0-1.66-.05-.31-.03-.12.3-.2.45-.08.14.12.14.21.15,1.62.1,3.24.03,4.85.04.13,0,.22-.01.18-.17.14.19.37.19.53.12.33-.15.6,0,.9.07.05,0,.13-.08.12,0,0,.26.01.53-.07.77-.05.15-.3.07-.46.07-2.05,0-4.1,0-6.15,0-.11,0-.23-.04-.38.06.49.03.95.07,1.4.07,1.93,0,3.85.04,5.78-.07.66-.04.66-.01.61.62-.01.15,0,.3.03.45.06.32,0,.52-.38.44-.05-.01-.11-.02-.16-.01-.14.03-.35-.08-.37.19-.01.22.04.38.27.45.1.03.21.08.32.08.19,0,.21.05.2.24-.02.39-.12.78.11,1.16.1.16,0,.27-.22.26-.21,0-.42-.08-.63.06.22.01.43.02.72.04-.11.09-.17.12-.21.16-.13.13-.45-.05-.44.15.01.25.32.09.49.15.23.09.29.28.31.49.03.27-.19.17-.31.21-.18.05-.37.07-.55.1.3.05.7.14.8.31.13.24.24.23.42.22,1.39-.03,2.77-.04,4.16-.08,1.76-.05,3.52.2,5.28.01.2-.02.42.03.69-.13-.8-.14-1.53-.26-2.25-.39.4-.11.77.04,1.16.02.08,0,.23.07.22-.08,0-.25.14-.17.21-.09.37.37.87.22,1.3.33.05.01.12,0,.13-.06,0-.05-.02-.12-.05-.14-.13-.06-.2-.26-.39-.17-.25.12-.41-.08-.6-.17-.07-.03-.16-.09-.12-.19.07-.17.16,0,.23,0,.11.02.21.12.35.05-.15-.26-.56-.32-.55-.7.48.09.51.71,1.11.8-.39-.43-.7-.78-1.02-1.13.28.08.49.23.69.42.34.33.71.61,1.16.77.18.06.35.03.43-.13.07-.15-.04-.32-.16-.39-.92-.54-1.55-1.37-2.17-2.18.94.23,1.52.99,2.24,1.58-.59-.65-.35-1.59-.84-2.27-.04-.06-.08-.19-.05-.23.22-.3.03-.58-.03-.86-.16-.71-.36-1.41-.53-2.11-.06-.23-.09-.47-.13-.71.29.59.52,1.19.75,1.79.23.6.44,1.22.69,1.81.24.57.42,1.18.76,1.71-.54-2.46-.53-4.93-.27-7.41.09.99.17,1.98.08,3.09.19-.19.17-.3.15-.4-.01-.09-.1-.21.05-.23.12-.02.15.1.16.2.07.45.16.9.18,1.35,0,.25.15.51,0,.77-.1-.48-.32-.92-.35-1.41-.08,1.12.28,2.18.34,3.28l-.16-.2c.06.44.06.89.33,1.28.18-.32-.3-.58-.01-.92.06.23.12.41.17.59.03-.81-.33-1.57-.21-2.37.19.67.28,1.36.55,2.01.15-.34.27-.67.35-1.01.41-1.63.77-3.28,1.22-4.9.86-3.06,1.71-6.12,2.14-9.27.31-2.28.55-4.56.7-6.86.04-.57.04-1.15.09-1.72.08-.84.18-1.69.2-2.53.06-2.02.07-4.04-.13-6.05-.1-1.05-.19-2.09-.48-3.11-.12-.43-.35-.88-.26-1.32.13-.65-.03-1.26-.13-1.86-.36-2.1-.44-4.22-.54-6.34-.05-1-.1-2-.28-2.98-.1-.56-.15-1.14-.46-1.64-.18-.29-.36-.58-.44-.92-.33-1.34-.71-2.67-1.14-3.98-.06-.19-.15-.29-.34-.36-1.86-.71-3.74-1.33-5.68-1.8-.2-.05-.32-.04-.49.13-.65.7-1.4,1.24-2.42,1.23-.25,0-.28.12-.28.33,0,.68.3,1.28.53,1.89.26.67.07,1.1-.55,1.35-.98.39-1.77-.04-2.51-.6-.25-.19-.41-.22-.67-.04-.61.4-1.28.66-2.01.65-.52,0-.9.25-1.36.56.42.12.94-.39,1.15.31-.38,0-.71.26-1.11.2-.18-.03-.27.05-.2.23.21.55.24,1.14.33,1.72,1.6-.53,3.1.76,2.98,2.55-.15-.09-.2-.24-.26-.37-.19-.44-.4-.88-.68-1.27-.24-.33-.47-.37-.8-.15-.13.09-.27.18-.41.28,1.02.84,1.41,1.83.82,3.07-.03.06-.04.13-.04.2.03.67-.11,1.34-.06,2.02.06.75-.12,1.5,0,2.26.17,1.01.45,2.01.51,3.04.08,1.52.16,3.04.14,4.57,0,.21.02.4.26.51.27.13.31.33.26.65-.06.32-.37.43-.44.71-.3,1.1-.78,2.14-1.2,3.2-.15.38-.28.74-.28,1.14.02,1.28.03,2.56.24,3.82.08.49-.07.8-.47,1-.39.2-.48.54-.4.9.14.64.33,1.26.34,1.94.02.72.43,1.38.7,2.06.12.29.15.49-.17.68-.3.18-.6.34-.92.45-.41.14-.57.4-.54.84.03.34.03.68-.04,1.03-.11.53-.15,1.06.02,1.59.08.25.15.5.19.75.03.17-.02.4-.22.37-.48-.08-.37.25-.38.49,0,.21-.03.42.03.62.07.26-.02.32-.25.3-.12,0-.29-.07-.32.09-.02.13,0,.33.17.37.18.05.14.15.13.27-.01.21-.03.41,0,.62.03.26-.06.31-.32.31-1.57-.01-3.14,0-4.71,0-.12,0-.35.12-.35-.14,0-.18-.1-.48.28-.45.05,0,.11-.02.15-.05.03-.02.11-.01.08-.1-.23-.05-.61.14-.56-.32.01-.12.06-.28.2-.37.09-.05.13-.21,0-.21-.35,0-.18-.23-.17-.36.01-.17.02-.31-.14-.4.13-.13.31-.02.39-.17-.05-.07-.1-.15-.15-.22-.12-.16-.23-.37-.05-.5.6-.42.9-1.48.55-2.17-.11-.21-.17-.43-.23-.66-.1-.39-.35-.53-.73-.52-.38,0-.77,0-1.15-.03-.26-.01-.36-.16-.37-.43-.02-.45.04-.87.22-1.28.29-.68.49-1.4.7-2.11.02-.08.07-.17.05-.24-.21-.88.03-1.71.22-2.55.03-.14.14-.33.01-.42-.21-.16-.13-.3-.03-.46.76-1.19.79-2.55.97-3.88.02-.13.04-.31-.15-.33-.17-.02-.16.16-.2.27-.12.34-.15.69-.25,1.04-.23.76-.61,1.49-.49,2.34.03.23.03.56-.4.52.05.13.11.24.14.36.05.17-.23.58-.39.59-.4.01-1.06-.59-1.09-1-.02-.34.07-.67.25-.94.48-.68.56-1.47.68-2.25.14-.95.33-1.88.43-2.83.1-.85.5-1.68.77-2.51.02-.05.05-.11.09-.13.68-.37,1.29-.92,2.1-1.02.46-.06.69-.31.89-.68.15-.27.1-.48-.13-.59-.46-.23-.91-.45-1.12-.96-.02-.04-.09-.06-.14-.07-.27-.08-.44-.29-.58-.5-.19-.28-.46-.69-.22-.94.29-.31.17-.59.15-.89-.03-.58.12-1.15.13-1.72,0-.51.23-.87.7-1.09.31-.14.63-.29.92-.47.92-.59,1.88-.81,2.93-.42.32.12.62.3.92.45.19.1.29.1.31-.17.03-.56.03-1.05-.5-1.46-.58-.46-1.09-.98-1.9-1.04-.35-.02-.69-.16-1.01-.34-.72-.41-.79-.93-.2-1.51.29-.29.64-.54.74-.97.11-.47.2-.94.3-1.43-.23.15-.27.47-.59.51.01-.66.21-1.22.69-1.64.56-.49,1.2-.79,2-.62,0-.3,0-.57,0-.84-.02-.59-.14-.68-.7-.51-.78.25-1.58.48-2.07,1.24.11-.63.38-1.16.82-1.67-.28,0-.68.25-.47-.33-.19.1-.35.18-.51.26-1.09.58-2.24.63-3.41.3-.47-.13-.9-.16-1.37-.05-.65.16-1.35.2-1.94-.14-.56-.31-1.02-.18-1.52.03-.75.32-.75.32-.66,1.11.01.11.01.22.01.33,0,.14.06.17.2.19.84.09,1.43.8,1.35,1.64-.02.2-.01.44-.23.58q-.43-.8-.67-.84s.02.05.03.08c.77,1.08.74,2.51-.29,3.76-.06.07-.13.13-.08.25.19.37.07.75.07,1.13,0,.47-.19.91-.16,1.39.06.76.32,1.44.61,2.13.09.21.21.34.42.42.36.14.62.39.84.7.46.64.53,1.37.59,2.11.05.58.13.67.69.76.3.04.4.25.23.5-.08.12-.2.22-.33.3-.41.25-.88.3-1.32.45-.11.04-.31.04-.28.19.07.42.07.92.37,1.19.26.24.33.49.37.77.07.42.06.85,0,1.28-.12.81-.32,1.57-.91,2.21-.29.31-.6.67-.7,1.14-.16.84-.34,1.67-.53,2.5-.08.35-.01.63.17.93.84,1.41,1.58,2.86,1.91,4.49.04.18.08.31-.13.4-1.02.49-2.05.94-3.18,1.11-.9.14-1.78-.09-2.67-.16-1.3-.1-2.6-.15-3.95.15.33-.59.64-1.11.91-1.64.59-1.18.99-2.46,1.69-3.58.58-.92.06-1.63-.23-2.42,0,.55-.45.9-.6,1.39-.35,1.18-.93,2.29-.8,3.57.02.2-.03.4-.18.53-.21.17-.25-.19-.44-.18-.06.27-.12.54-.18.81-.02.09-.12.24-.15.19-.16-.28-.58-.31-.63-.73-.07-.63.16-1.17.47-1.66.22-.36.34-.75.44-1.14.26-.97.41-1.96.52-2.96.03-.25.21-.53-.15-.71-.08-.04-.01-.18.02-.27.2-.57.29-1.17.39-1.77.12-.75.51-1.36,1.22-1.71.6-.3,1.19-.6,1.73-1.02.32-.25.44-.55.51-.9.04-.21.16-.47-.16-.61-.29-.12-.52-.07-.72.18-.58.7-1.34,1.11-2.21,1.33-.23.06-.43.09-.58-.15-.14-.24,0-.41.16-.53.22-.15.23-.35.21-.58-.04-.64-.43-1.11-.75-1.62-.25-.41-.41-.85-.29-1.32.2-.81.69-1.35,1.55-1.5-.07-.2-.26-.26-.37-.4-.07-.1-.2-.19-.11-.32.09-.14.23-.06.33,0,.25.17.46.28.47-.19,0-.15.13-.25.28-.26.17-.01.19.12.21.25,0,.07,0,.14.09.19.43-.67.92-1.33,1.72-1.54.77-.2,1.58-.44,2.29.18.13-.12,0-.35.19-.35.14,0,.12.19.16.3.04.09.01.23.22.24-.03-.64-.16-1.25-.3-1.85-.11-.49-.36-.88-.74-1.21-.35-.3-.58-.69-.85-1.06-.08-.11-.16-.26,0-.36.14-.09.26,0,.37.09.12.1.15.3.38.31.02-.33-.14-.45-.44-.52-.57-.13-1.12-.3-1.49-.8-.17-.23-.27-.52-.09-.73.44-.49.52-1.06.53-1.67,0-.44,0-.91.33-1.25.52-.54,1.08-1.04,1.91-1,.2,0,.26-.07.26-.26-.01-.25,0-.5,0-.8-.41.17-.77.23-1.1.34-.65.23-1.42.07-1.99.73-.01-.89.51-1.35,1.1-1.8-.21-.06-.38,0-.55,0-.31,0-.69.08-.93-.06-.32-.19-.49-.06-.72.07-.83.48-1.64,1.02-2.51,1.43-1.38.65-2.48,1.59-3.49,2.73-.98,1.11-2.23,1.91-3.82,1.94-.65.02-1.24.24-1.77.69-.54.45-1.17.78-1.88.9-.36.06-.64.2-.9.45-.36.35-.79.48-1.29.3-.12-.04-.24-.08-.36-.1-.6-.08-.67-.02-.65.57,0,.14,0,.28.02.41.03.17.02.39.23.45.19.06.23-.16.34-.25.05-.04.09-.1.15-.14.09-.08.18-.2.32-.13.18.09.08.26.02.36-.28.53-.56,1.06-.89,1.56-.22.33-.27.64-.16,1.01.2.68.37,1.38.6,2.06.38,1.16.6,2.37,1.08,3.5.13.31.29.32.48.13.28-.28.54-.17.81-.02.1.05.18.12.27.19.12.09.25.19.41.08.17-.12.13-.28.09-.45-.08-.44-.32-.77-.7-1.02-.36-.24-.64-.55-.73-1-.43-2.11-.29-4.21-.01-6.32.04-.32.19-.56.45-.75.3-.22.55-.02.82.05,1.07.25,2.13.52,2.99,1.27.33.29.75.45,1.16.59.08-.2-.04-.42.08-.62.22.13.34.34.42.52.09.23.19.25.39.17.08-.04.19-.03.28-.03.15,0,.37-.03.39.14.03.19-.18.26-.34.28-.27.04-.24.15-.1.32.14.17.27.35.31.58.15.81.12,1.61-.03,2.42-.16.86-.63,1.53-1.23,2.14-.49.49-1,.98-1.07,1.75-.03.31.02.46.35.52.55.1,1.05.38,1.54.63.33.17.64.42.94.66.5.4,1.07.76,1.24,1.47.15.63.36,1.24.58,1.85.07.2.05.5.43.5.68,0,1.19.41,1.36.99.2.71-.02,1.39-.59,1.79-.14.1-.26.18-.29.37-.09.68-.21,1.36-.31,2.03-.08.51-.22,1.03.37,1.38.2.12.16.38.08.57-.11.28-.2.57-.5.73-.16.08-.22.25-.21.42,0,1.12-.15,2.22-.16,3.34-.03,2.2-.03,4.4-.02,6.6,0,.55,0,1.1.05,1.65.05.57.14,1.16,0,1.72-.13.52,0,.89.38,1.22.22.19.25.43.06.65-.1.12-.08.17-.03.31.07.23.04.51-.01.75-.02.07-.27.11-.41.12-.22.02-.3.12-.29.34.01.23.06.37.32.38.14,0,.27.01.41.03.09.01.21,0,.26.1.05.12-.09.15-.12.24-.04.09-.25.14-.13.24.17.14.1.21,0,.33-.12.16-.13.3.11.36.19.05.14.22.14.34,0,.2-.17.14-.28.14-.33,0-.66,0-.99.01-.1,0-.35-.03-.26.11.12.2-.23.51.19.6.26.06.52,0,.78.03.07,0,.14,0,.17.08.02.06,0,.11-.07.12-.45.07.06.42-.16.56.11.13.24.15.4.15.3,0,.6,0,.91.01.53,0,1.06.07,1.47-.44.14-.18.14-.2.02-.35-.1-.13-.2-.12-.32-.12-.08,0-.18.01-.17-.12,0-.11.08-.2.19-.16.19.07.35-.05.52-.08.15-.02.19-.15.19-.28,0-.18-.16-.11-.25-.12-.12-.02-.25,0-.37,0-.11,0-.23,0-.22-.16,0-.17.13-.15.24-.15.31,0,.63,0,.94,0-.22-.09-.44-.08-.65-.1-.15-.01-.35.09-.45-.09-.1-.17.14-.31.11-.5,0-.04.15-.09.22-.15.06-.05.15-.15.02-.19-.15-.05-.13-.06-.05-.17.14-.19.1-.34-.16-.42-.1-.03-.26-.04-.21-.24.04-.15.09-.26.27-.23.17.02.29-.06.25-.22-.04-.14.1-.4-.19-.42-.38-.04-.32-.37-.23-.52.09-.14.09-.23.04-.32-.16-.29-.02-.36.23-.4.96-.17,1.92-.1,2.88-.1,1.43,0,2.86.05,4.29.03.95-.01,1.91-.06,2.86-.04.21,0,.3.09.31.29.01.22-.16.19-.28.2-.3.04-.61-.06-1.02.08.4.08.68.02.96.03.13,0,.34-.09.33.17,0,.21.13.48-.22.58-.24.07-.34.4-.2.62.29.48.24.63-.3.76-.13.03-.24.09-.14.21.17.2.22.51.48.63.15.07.16.18.14.3-.03.17-.17.1-.27.1-.58,0-1.17,0-1.75,0,.58.09,1.15.09,1.73.1.1,0,.3-.09.27.12-.02.14.02.39-.28.35-.15-.02-.3-.02-.45-.01-.11,0-.26-.06-.3.12-.03.12-.05.28.03.36.09.08.21,0,.32-.04.17-.05.42-.11.53.11.13.27-.14.26-.28.33-.04.02-.08.06-.14.11q.55-.03.39.68c.28.07.57.05.86.03.19-.02.41-.06.15-.35-.18-.2-.18-.49-.1-.75.07-.22.27-.24.47-.25.18,0,.14-.19.22-.3-.54-.06-.54-.06-.39-.54.09-.29.05-.57.04-.86,0-.19-.06-.34.08-.55.15-.22.3-.61-.05-.83-.17-.11-.17-.22-.17-.36,0-.19.02-.39,0-.58-.03-.24.05-.33.28-.3.27.03.41-.08.36-.37-.02-.13,0-.27-.03-.41-.03-.15-.06-.26.16-.27.2-.01.25-.2.26-.35,0-.15-.09-.25-.27-.22-.07.01-.15-.02-.12-.11.12-.49-.2-1.1.4-1.48.18-.11.09-.47-.1-.47-.63,0-.2-.43-.24-.64-.06-.32.24-.15.37-.17.29-.04.59.15.91-.07-.34-.03-.64-.09-.93-.07-.37.02-.46-.2-.42-.47.04-.29.31-.14.45-.13,1.55.08,3.11.08,4.66.06.66,0,1.32-.06,1.98-.07.1,0,.3-.11.31.13,0,.18-.12.21-.27.24-.16.04-.36.02-.44.22.23.16.51-.18.64.03.11.17,0,.46.05.68.04.2.02.27-.2.26-.19-.01-.46-.02-.42.24.03.19.06.53.45.45.17-.04.19.05.17.22-.03.31-.05.63-.01.95.02.21-.05.23-.21.22-.24-.02-.44,0-.61.21-.07.09-.25.1-.39.11-.14.02-.28,0-.37.13Zm-26.93,1.21c.41-.02.73-.04,1.06-.05.14,0,.16-.08.19-.2.4-1.3.33-2.64.22-3.96-.13-1.57-.25-3.14-.39-4.72-.09-1-.16-2-.24-3,0-.1,0-.22-.12-.23-.12-.01-.12.12-.15.21-.45,1.32-.69,2.68-.66,4.08.01.67-.03,1.35-.05,2.02-.03,1.59-.08,3.18.42,4.73.19.59.17.59-.29,1.11Zm5.78-.52c.19-.27.32-.48.25-.75-.2-.79-.2-1.61-.22-2.42-.12-3.79-.25-7.58-.43-11.37-.02-.46-.18-.78-.69-.93.2.73.36,1.43.58,2.12.11.34.13.64-.14.86-.3.25-.3.57-.35.9-.2,1.44.18,2.88.03,4.32,0,.03,0,.05,0,.08.14,1.26.17,2.52.31,3.78.12,1.14.45,2.23.66,3.41Zm21.32-8.24c-.26,0-.52-.02-.78,0-.34.03-.39-.08-.22-.35.27-.44.48-.89.35-1.43-.08-.34-.08-.68-.1-1.02-.03-.65-.04-.66-.66-.45-.21.07-.36.09-.34-.2.05-.64-.13-1.25-.18-1.88-.02-.24-.09-.48-.16-.72-.03-.12-.14-.17-.26-.15-.11.02-.1.11-.09.2.06.82-.02,1.64-.05,2.47-.01.23-.04.39-.31.34-.24-.05-.28.07-.29.27-.02.91-.07,1.81.39,2.65.11.2.07.29-.18.28-.53-.02-1.07,0-1.6,0,.83.2,3.64.21,4.48,0Zm-21.6,13.18c.06-.15-.14-.2-.08-.35.11-.25-.04-.29-.26-.29-.38,0-.77,0-1.15-.01-2.45-.09-4.9-.22-7.35.09-.21.03-.35.05-.2.27.18.28-.17.18-.21.35h4.29s0-.02,0-.02c-1.01-.05-2.02-.1-3.03-.14.58-.14,1.16-.07,1.73-.05,1.18.04,2.36.11,3.53.17.73.03,1.47-.26,2.2.15.23.13.6.08.9-.07h-.78c.17-.15.3,0,.42-.09Zm20.52-8.14s0-.05,0-.07c-1.22,0-2.44,0-3.66,0-.23,0-.75-.2-.48.42-.32.44.12.34.29.37.34.05.67-.04,1.01-.05,1.46-.05,2.93.28,4.38-.08.07-.02.22.15.17-.07-.05-.19.18-.53-.11-.56-.43-.05-.89-.09-1.43.01.36.13.68.05.92.25-1.45-.12-2.9-.04-4.35-.22h3.25Zm-1.21,8.24v-.11c.19,0,.37,0,.56,0,.41,0,.84.19,1.2.14.43-.06.86-.09,1.29-.11.13,0,.28-.08.27-.2,0-.16-.18-.12-.3-.13-1.08-.06-2.17-.13-3.25-.02-.43.04-.85.13-1.29.05.16-.01.32-.03.55-.05-.46-.04-.85-.07-1.23-.09-.38-.02-.77-.02-1.15-.04-.2-.01-.32.08-.37.24-.06.2.15.14.23.21.33.27.72.11,1.07.14,1.19.09,2.38.08,3.58-.02h-1.17Zm12.07-59.05c-1.47-.34-2.88-.59-4.3-.83-.09-.02-.23-.08-.25.04-.03.17-.03.36.02.52.03.11.17.02.25-.01.64-.2,1.25-.08,1.84.19.22.1.42.23.56.48-.54.09-1-.22-1.5-.14.57.19.96.74,1.69.61.66-.12,1.19-.35,1.69-.85Zm24.44,58.37c-.66.53-1.25,1.15-1.94,1.64-.13.1-.11.25-.07.38.04.14.19.08.29.08.43.01.85.02,1.28.02.58,0,.58,0,.66-.55.08-.53.14-1.07-.22-1.57Zm-44.44.45c.41,0,.82,0,1.23,0,.07,0,.19.04.21-.06.03-.11-.03-.24-.13-.27-.14-.05-.3-.07-.44-.07-.38,0-.77.01-1.15,0-1.96-.03-3.93-.06-5.89-.1-.08,0-.17,0-.25,0-.17-.02-.31.03-.32.22,0,.24.19.19.33.19,2.14.05,4.28-.17,6.41.09Zm-12.39-21.92c.25-.08.5-.16.74-.23.14-.04.2-.13.16-.28-.15-.56-.14-1.14-.22-1.71-.02-.12,0-.26-.15-.31-.32-.11-.58-.33-.87-.55.11,1.05.22,2.06.34,3.08Zm13.48,18.63c-.61-.22-1.23-.1-1.86-.06-1.41.09-2.82.29-4.23.21-.12,0-.28-.06-.38.16,2.5.02,4.97-.03,7.44,0-.5-.51-1.15.02-1.74-.31h.78Zm25.43,1.66c-.06.17-.12.35-.19.52-.2.44-.15.83.17,1.21.18.21.31.45.46.68.06.09-.08.34.15.28.17-.04.35-.18.31-.42-.01-.09,0-.2-.03-.29-.21-.61-.11-1.25-.18-1.87-.02-.16,0-.33-.08-.46-.53.76-.12,1.57-.11,2.37-.17-.66-.37-1.32-.5-2.01Zm-18.27-9.18c-.49-.55-1.23-.05-1.84-.4.56-.07,1.07.03,1.58-.06-.03-.06-.04-.09-.05-.1-.71-.06-1.42-.04-2.14,0-.11,0-.26.05-.19.19.06.13-.07.37.24.39.8.05,1.59.03,2.39-.02Zm-9.36,12.72c3.11.44,6.22.15,9.34.2-3.11-.1-6.23-.08-9.34-.2ZM2.96,11.3c.15-.14.18-.33.22-.51.1-.48.19-.96.45-1.4.08-.14.22-.3,0-.42-.17-.1-.32.03-.41.17-.36.54-.55,1.12-.47,1.78.02.15.05.3.21.38Zm59.51,35.04c.01.1-.03.21.06.24.13.04.19-.09.25-.17.35-.5.52-1.13,1.11-1.45.08-.04.09-.13.05-.22-.03-.07-.1-.08-.17-.09-.16-.01-.29.05-.42.14-.55.38-.75.96-.88,1.55Zm-11.98,44.16s0-.07,0-.1c-.27,0-.55,0-.82,0-1.08-.02-2.15.07-3.23-.03-.08,0-.2-.04-.21.06-.02.14-.04.34.03.43.07.09.27.05.42.02.12-.03.19-.06.1-.19-.1-.15.03-.11.1-.12.38,0,.77-.06,1.14,0,.84.12,1.66-.08,2.48-.06Zm-.26-43.33c.2-.46.12-.97.38-1.39.25-.41.72-.56,1.13-.95-1.3.14-2.07,1.49-1.51,2.34Zm-41.32-10.94c.44-.26.62-.71,1.01-.94.11-.07.26-.16.15-.32-.09-.13-.23-.11-.37-.07-.52.16-.85.67-.8,1.33Zm61.48.57c0-.45-.77-1.05-1.22-.95-.09.02-.19.05-.2.17,0,.09.05.16.13.18.43.09.74.33.94.72.04.09.13.15.24.11.11-.04.11-.14.11-.24Zm-41,57.07c-.04.49-.24.33-.44.18-.16-.11-.31-.24-.51-.39.29.96.8,1.24,1.63.95-.21-.23-.42-.46-.68-.74ZM10.43,43.77c-.09-.76-.21-1.52.29-2.2-.78.31-.91,1.4-.29,2.2Zm-2.54-29.43c.34-.23.63-.42.91-.61.09-.06.25-.09.17-.27-.06-.14-.16-.23-.31-.23-.27.02-.51.11-.59.41-.06.21-.1.42-.17.69Zm23.12,35.02c-.27-.37-.67-.55-.71-1.04-.03-.41-.19-.81-.3-1.24-.4.71.14,1.95,1.01,2.29Zm27.75,41.62c-.32,0-.55.02-.78,0-.44-.05-.5.25-.55.56-.02.08,0,.18.11.17.07,0,.22-.02.21-.03-.12-.1-.09-.12.04-.14.19-.03.32-.15.43-.29.02-.03.06-.03.1-.05.04.1-.13.16-.02.27.25-.02.28-.26.48-.48Zm1.14,2.27c1.48.19,2.96.07,4.44.1-1.48-.06-2.96-.18-4.44-.1Zm-7.34-33.09c-.02-.16-.03-.31-.05-.46,0-.07-.05-.17-.12-.12-.15.11-.42.13-.43.34-.02.24.04.51.23.68.14.12.29-.02.35-.16.04-.08.02-.19.02-.28Zm-14.63,34.59s0,.08.01.12h3.31c-1.06-.27-2.19-.03-3.32-.12Zm62.59,1.34c-.5-.12-1-.19-1.53.26.58-.02,1.07.11,1.53-.26Zm-34.77-62.25c-.41.29-.45.62-.36.99.02.09.08.18.2.18.12,0,.16-.1.16-.2,0-.3,0-.59,0-.97Zm13.99,61.26c-.35-.22-.59-.37-.83-.53-.09-.06-.2-.14-.3-.07-.11.08-.05.22-.04.34.02.14.1.17.22.18.28.02.56.04.95.07Zm-28.85-.85h3.2c-1.03-.12-2.05-.16-3.2,0Zm47.18.25c-.18.71-.15.76.32.89.08.02.18.09.22,0,.04-.06.05-.16-.03-.26-.17-.19-.32-.4-.51-.64Zm-35.91-11.36c.14-.02.28-.07.4-.05.15.02.17-.02.16-.14,0-.07.09-.17-.02-.22-.14-.06-.16.03-.15.14,0,.05-.06.05-.08.01-.17-.31-.42,0-.62-.09-.04-.02-.16-.03-.17.05,0,.09.02.21.12.24.11.04.24.04.36.05Zm37.89,13.81c.35.24.91.33,1.38.23-.47-.26-.93-.23-1.38-.23Zm-59.05-28.93c-.07-.17-.14-.35-.22-.52-.06-.14-.2-.16-.31-.13-.11.02-.05.16-.06.25-.03.39.36.29.58.4Zm-28.93-29c-.35.14-.28.41-.29.65,0,.17.14.13.24.13.14,0,.15-.09.13-.19-.02-.19-.06-.37-.09-.59Zm49.32,43.58h1.36c-.45-.15-.91-.11-1.36,0Zm-11.87,8.86c-.4-.04-.81-.1-1.2.07.4.03.8.07,1.2-.07Zm.67-43.9c-.13.02-.23.09-.26.22-.03.14.06.24.19.26.14.02.24-.06.26-.2.02-.13-.05-.23-.19-.27Zm-19.85,2.91c.05.15.07.25.11.35.04.11.04.25.18.3.02,0,.08-.03.09-.05.05-.13.04-.27-.03-.39-.07-.11-.16-.21-.35-.21Zm11.22,22.37c.03-.24.12-.46-.07-.58-.12-.08-.28.06-.3.19-.05.25.2.25.37.39Zm21.46,15.12c.26.31.54.12.81.13,0-.04,0-.09,0-.13h-.81Zm15.63,5.61c-.09-.31-.27-.55-.55-.83.1.41.25.67.55.83Zm-35.34-25.84c.38-.22.38-.28.08-.63-.03.2-.15.39-.08.63Zm-5.32,26.88s0,.04,0,.05h1.39s0-.04,0-.05h-1.39Zm61.59-.85c.01.29.02.59.44.69-.17-.27-.3-.48-.44-.69Z" fill="#292974"/>
        <path d="m69.19.02c1.19.42,2.09,1.24,2.63,2.38.15.32.42.54.77.64,1.2.33,2.15,1.14,3.26,1.65.3.14.53.41.65.72.14.35.38.55.71.7,1.3.57,1.01,1.51.5,2.24-.25.36-.61.59-.98.81-.63.38-1.18.78-1.51,1.5-.34.73-1.01,1.26-1.63,1.79-.77.66-1.57,1.3-2.35,1.95-.56.46-1.21.75-1.89,1.09.22.22.41.37.7.42.33.07.65.23.97.35.06.02.13.06.12.14-.01.08-.09.09-.16.1-.05,0-.13.03-.16,0-.41-.33-.91-.08-1.47-.26.58.63,1.08,1.18,1.59,1.73,1.6,1.67,3.29,3.24,5.06,4.73.18.15.3.18.5.06.19-.11.4-.17.6-.27.13-.07.31-.09.23-.35-.08-.23.14-.22.29-.21.62.02,1.24-.02,1.86-.1.03-.28-.2-.44-.28-.67-.04-.12-.12-.25-.02-.34.12-.11.24,0,.33.07.15.12.28.26.43.38.12.09.11.39.32.3.2-.09.44-.18.54-.45.09-.25.46-.53.54-.45.31.3.53-.02.78-.02.21,0,.44-.06.61-.22.17-.15.22.06.33.08.63.14,1.26.08,1.87-.08.13-.03.16-.13.16-.25,0-.18,0-.35,0-.55.03.02.06.03.06.04.08.74.09.76.79.46.32-.14.7-.19.88-.55.58.05.91-.4,1.32-.68.65-.44,1.15-1.01,1.53-1.7.24-.44.58-.76,1.05-.95.18-.07.35-.16.53-.23.58-.2,1.05-.45,1.27-1.14.29-.92,1.12-1.14,1.99-1.17.42-.02.81-.04,1.12-.38.06-.06.33-.39.31.09,0,.12.14.04.2.03,1-.21,1.98-.49,2.84-1.06.13-.09.41-.12.25-.42-.06-.11.09-.1.16-.11.88-.12,1.5-.97,1.34-1.83-.2-1.06-.12-2.11.23-3.12.14-.4.15-.81.18-1.22.08-1,.05-2.01,0-3.01-.02-.32,0-.59.17-.87.24-.39.19-.53-.2-.76-.13-.07-.27-.13-.39-.22-.1-.08-.14-.21-.08-.33.07-.14.2-.14.32-.1.71.25,1.4.86.78,1.71-.09.12-.13.27-.12.43.12,1.26.07,2.53-.01,3.79-.03.47-.26.89-.34,1.35-.15.82-.19,1.64-.03,2.46.13.67-.03,1.2-.6,1.63-.43.33-.41.36-.05.78.35.42.48.91.53,1.46-.22-.04-.3-.19-.39-.33-.14-.21-.26-.42-.4-.63-.33-.48-.33-.48-.74-.08-.69.67-1.58.86-2.47,1.06-.51.12-1.02.24-1.51.41-.31.1-.48.3-.53.62.15.09.27-.03.39-.06,1.08-.33,2.1.12,2.58,1.13.43.89.86,1.78,1.49,2.56.64.8.27,1.67-.74,1.88-.9.18-1.8.24-2.71.08-1.56-.27-2.41-1.28-2.42-2.85,0-.07,0-.14,0-.24-.29.07-.38.32-.53.49-.15.17-.3.36-.55.21-.22-.13-.59-.19-.38-.62.07-.14.14-.32.06-.56-.31.42-.37.86-.32,1.3.14,1.11.21,2.21.22,3.33,0,.05.02.11.03.22.45-.54.68-1.1.53-1.78-.08-.37.04-.72.23-1.08.22.4.25.8.33,1.19.18.86.25,1.7,0,2.56-.09.3-.12.62-.17.93-.05.31-.04.61.23.83.19.15.12.46.37.6.23-.55.73-.89,1.07-1.34.07-.09.18-.15.28-.05.11.11.19.23.12.4-.11.3-.37.47-.55.71-.07.09-.27.18-.14.33.12.13.21-.06.31-.1.08-.03.15-.07.23-.08.15-.02,1.12.75,1.12.91,0,.32-.32.17-.5.32.16.02.18.4.41.07.04-.05.08-.02.1,0,.43.38,1,.58,1.33,1.09.19.3.32.61.28.97-.04.32.07.61.33.75.55.29.7.81.88,1.33.05.14.05.35.24.33.22-.01.05-.26.17-.4.45.4.97.47,1.53.25.03,0,.06-.03.08-.02.6.33,1.02-.11,1.49-.35v.66c-.3.26-.65.48-1.04.4-.32-.06-.61,0-.92.01-.33.02-.34.14-.24.4.49,1.31.95,2.62,1.44,3.93.25.68.43,1.38.76,2.02v1.4c-.4-.73-.59-1.55-.88-2.32-.54-1.4-1.03-2.83-1.57-4.23-.13-.34-.36-.64-.62-.93-.33.27-.45.68-.72.98-.18.19.12.43.02.73-.08-.39-.23-.66-.54-.84-.16-.09-.21-.33-.21-.52,0-.53-.08-1.06.21-1.55.16-.26.04-.52-.21-.67-.48-.28-.74-.69-.84-1.25-.1-.5-.41-.89-.87-1.14-.18-.09-.32-.18-.52-.04-.15.1-.31.05-.46-.06-.15-.11-.07.08-.12.11h0c-.17-.11-.17-.3-.24-.46-.15-.35-.34-.63-.73-.78-.28-.11-.48-.47-.86-.25-.07.04-.12-.04-.13-.11-.12-.48-.4-.87-.68-1.25-.65-.89-.88-1.91-.88-2.99,0-1.05-.07-2.09-.25-3.12-.08-.46.07-.9.21-1.33.04-.11.13-.21.09-.38-.5.21-1.02.33-1.31.85-.72,1.33-1.86,2.19-3.17,2.85-.28.14-.4.3-.41.62-.03.8-.1,1.59-.15,2.39-.06.79-.12,1.59-.24,2.38.09-1.68.19-3.37.29-5.11-.43.16-.82.3-1.2.44-.23.09-.13.27-.11.42.12,1.03.26,2.07.38,3.11-.14-.83-.32-1.66-.42-2.49-.12-.93-.09-.94-.98-.8-.36.06-.71.03-1.07-.01-.22-.03-.29.02-.33.27-.21,1.7-.43,3.39-.69,5.09-.06.4-.22.8-.34,1.2-.11.4.11.43.37.43.29,0,.48-.17.59-.44.18-.48.37-.97.57-1.44-.06.48-.16.95-.36,1.38-.32.69-.84.87-1.51.5-.22-.13-.3-.06-.37.14-.05.13-.11.25-.17.37-.05.11-.06.1-.23.12-.05,0-.11.08-.14.13-.1.15-.17.31-.42.43.22-.33.39-.59.57-.85.12-.17.17-.37.22-.57.02-.08.07-.17-.03-.21-.15-.06-.13.09-.18.16-.1.15-.1.34-.29.5.06-.25.1-.45.16-.7-.33.21-.46.53-.71.84,0-.35.22-.54.28-.77-.1-.11-.19.06-.29-.03.37-.2.27-.33-.03-.53-1.23-.83-2.41-1.73-3.58-2.65-.07-.05-.17-.09-.18-.24.45.23.8.55,1.18.83.79.58,1.57,1.16,2.35,1.75.18.14.32.21.43-.07.02-.06.03-.13-.02-.14-.4-.08-.37-.58-.75-.72-.37-.14-.67-.48-.99-.73-.34-.26-.68-.51-1.02-.78-.33-.25-.65-.51-.97-.77-.16-.13-.31-.24-.55-.16-.22.08-.41-.04-.32-.3.07-.2-.02-.27-.14-.37-2.39-2.08-4.69-4.25-6.78-6.63-.13-.15-.26-.32-.45-.08-.03.04-.06.06-.09.03-.29-.32-.51-.01-.78.07.61.72,1.19,1.42,1.78,2.12-.41-.2-.64-.57-.92-.89-.27-.29-.51-.61-.75-.93-.13-.17-.21-.15-.35,0-.39.41-.4.41-.02.84.17.2.34.39.49.61-.32-.14-.52-.42-.73-.67-.17-.2-.28-.21-.5-.06-.81.56-1.5,1.27-2.29,1.84-.37.26-.9.32-1.4.22-.53-.1-1.02-.31-1.6-.5.58.98,1.25,1.82,1.65,2.83-.36-.52-.71-1.05-1.07-1.57-.33-.47-.69-.92-1.03-1.39-.14-.2-.34-.27-.55-.33-.67-.19-1.37-.29-1.97-.69-.07-.04-.15-.07-.29.01,1.97,3.06,4.48,5.65,7.08,8.21.05-.23-.05-.36-.1-.51-.05-.15-.23-.23-.24-.43.44.33.63.8.84,1.27.11-.27-.13-.46-.05-.72.39.89,1.16,1.61,1.28,2.62l-.11.06c-.1-.13-.2-.28-.31-.4-.1-.11-.16-.27-.39-.2-.21.07-.33.19-.3.37.06.37-.16.57-.4.84.03-.41.15-.77.07-1.14-.02-.07.03-.19-.08-.2-.13-.01-.14.1-.14.2,0,.11-.02.21-.04.34-.06-.05-.11-.07-.11-.09,0-.59-.43-.39-.71-.37-.83.06-1.66.16-2.49.25-.42.05-.83.14-1.27.21,0-.19.07-.29.24-.41.48-.36,1.04-.44,1.59-.47.75-.05,1.5-.09,2.25-.16.32-.03.33-.14.22-.4-.1-.22-.26-.39-.43-.55-1.4-1.33-2.69-2.75-3.97-4.19-.67-.76-.99-1.71-1.51-2.54-.39-.62-.86-1.13-1.46-1.53-.28-.19-.59-.08-.88-.09-.11,0-.1.11-.1.19-.01.75-.46,1.21-1.05,1.56-.49.29-1.03.45-1.61.47-.56.02-1.07-.33-1.26-.83-.1-.27-.08-.51.18-.64.41-.21.53-.6.69-.97.07-.17.02-.22-.12-.27-.22-.09-.45-.11-.69-.09-.45.04-.83-.15-1.21-.36-.19-.1-.19-.24-.1-.41.09-.18.22-.18.37-.09.69.43,1.44.46,2.22.35.46-.06.93.07,1.38.08.75.03,1.47.4,2.24.18.04-.01.11-.02.12,0,.36.49.9.3,1.36.38.5.08,1,.17,1.5.28.61.13,1.14.46,1.72.68.29.11.58.19.87.23.36.04.63-.27.56-.67.14.04.15.28.37.18.95-.44,1.89-.9,2.68-1.6.05-.04.13-.06.19-.08-.04-.04-.07-.09-.11-.13-.27.2-.53.4-.8.59.51-.64.86-1.39,1.77-1.65,2.68-.79,4.72-2.55,6.61-4.52.33-.34.62-.72.98-1.05.61-.56.9-1.3.91-2.16.28.24.29.26.27.88.25-.08.43-.24.6-.4.52-.5.49-.79-.14-1.09-.44-.21-.69-.58-.98-.95-.49-.63-1.15-1.15-1.95-1.35-.99-.25-1.84-.68-2.55-1.4-.15-.15-.44-.11-.54-.34-.03-.07-.15-.17-.05-.2.41-.12.09-.29.02-.4-.36-.61-.92-.97-1.56-1.23-.33-.14-.67-.26-.96-.47-.37-.27-.36-.31.03-.51h1.02Zm10.26,24.19c-.33-.25-.35-.6-.43-.9-.08-.29-.24-.39-.5-.33-.41.09-.85.06-1.24.23-.1.04-.25.04-.27.16-.02.12.12.17.2.24.98.86,2.1,1.55,3.05,2.46.16.16.24.06.31-.06.2-.34.41-.67.59-1.02.23-.45.43-.91.64-1.36-.02.5-.23.94-.37,1.46.5-.58.82-3.09.68-3.59-.46.13-.78.5-1.19.72-.47.26-.78.81-1.42.75-.26-.02-.3.09-.19.31.15.28.17.58.13.94Zm14.74-6.54c-.16.4-.02.76.16,1.1.33.62,1.11,1.05,1.7.95.15-.03.38-.06.35-.27-.03-.19-.22-.1-.35-.09-.57.04-1.03-.17-1.31-.68-.19-.33-.42-.64-.55-1.01Zm-1.67,5.69c.04-.69.27-1.35.41-2.14-.7.71-.9,1.37-.41,2.14Zm-38.56-4.02c.49.01.92-.1,1.25-.48.09-.1.13-.21.05-.33-.05-.07-.12-.04-.18,0-.38.25-.81.44-1.11.82Zm27.91,7.76c-.26.27-.26.56-.37.8-.05.1.03.15.11.19.12.05.14-.05.15-.12.04-.26.07-.52.12-.86Zm16.76,4.61c.09-.18.18-.36.26-.54.05-.11,0-.2-.1-.24-.14-.07-.15.08-.18.15-.09.19-.1.4.02.63Z" fill="#292974"/>
        <path d="m27.54.05c-.11.29-.54.48-.31.91.03.06-.07.09-.14.11-.54.18-.82.7-.69,1.27.05.23.25.25.41.28.87.16,1.75.14,2.63.06.26-.02.52-.03.78-.04.16,0,.25.08.28.24.04.19-.06.25-.22.25-.1,0-.13.03-.13.15-.02.75.11,1.44.76,1.94.37.29.62.69.86,1.1.24.4.56.72.97.93.87.44,1.71.94,2.64,1.27.35.13.71.25,1.08.23.99-.05,1.98.05,2.97.1.2.01.42.03.62-.03.65-.2,1.13.23,1.68.41.14.05.14.19.15.32.05.45.09.9.14,1.35.04.38.17.72.37,1.04.11.18.2.23.35.01.22-.32.51-.54.91-.56.08,0,.18-.03.22.06.04.09-.05.15-.11.2-.22.19-.43.38-.61.61-.14.18-.16.32.04.49,1.01.86,2.06,1.65,3.24,2.26.46.23.95.37,1.46.43,1.08.12,2.15.31,3.29.23-.11.15-.28.09-.34.22.11.14.34.1.45.29-.5.31-1.04.4-1.61.43-1.95.09-3.73-.38-5.29-1.59-.49-.38-1.01-.72-1.48-1.12-.28-.24-.37-.16-.45.14-.05.18-.08.37-.29.51-.09-.32-.19-.61-.1-.93.06-.23.06-.45-.16-.63-.65-.53-.95-1.23-.94-2.06,0-.11-.01-.22-.02-.33-.07-.72-.15-.77-.86-.69-.95.11-1.89-.09-2.84-.18-1.23-.12-2.46-.27-3.67-.88.54,1.01.88,1.98.53,3.13-.26-.34-.31-.69-.46-1.02-.04.05-.08.08-.09.11-.59,1.69-2.01,2.27-3.57,2.64-.5.12-.93-.18-1.34-.42-.27-.16-.14-.47-.02-.63.43-.55.42-1.2.54-1.83.13-.64.27-1.28.5-1.94-.31.08-.5.31-.82.35.13-.67.61-.98,1.17-1.22-.23-.32-.65-.6-.4-1.02.32-.52.37-.5,1.39.02-.18-.45-.44-.78-.74-1.09-.47-.49-.99-.97-.98-1.71,0-.51-.21-.56-.62-.55-.56.01-1.13.01-1.69-.08-.03,0-.06,0-.08-.01-1.55-.39-2.04-1.17-.96-2.5.27-.33.56-.67.83-1,.28,0,.53,0,.81,0Zm2.47,11.08c.28-.76.41-1.59,1.08-2.22-.81.08-1.22.95-1.08,2.22Z" fill="#292974"/>
        <path d="m43.29.04c.44.53.83,1.14,1.05,1.8.12.35.34.65.55.96.3.44.55.92.25,1.45-.31.54-.81.73-1.43.71-.49-.01-.99.02-1.48-.03-.9-.1-1.67-.54-2.42-.99-.67-.4-.8-1.11-.88-1.82-.01-.12,0-.25-.04-.37-.22.44-.27.92-.29,1.41,0,.22.1.52-.28.6-.07.02-.12.17-.16-.02-.19-.91-.43-1.82.1-2.72.25-.42.63-.74,1.04-.97h3.98Zm-1.68,3.79c-.1-.24-.28-.27-.47-.3-.74-.13-1.36-.79-1.46-1.52-.01-.09.06-.27-.12-.24-.13.02-.11.17-.11.28-.01,1.14,1.02,2.01,2.17,1.79Zm1.27-.02c-.02-.18-.13-.28-.3-.28-.16,0-.26.09-.27.25,0,.17.08.3.26.31.17,0,.26-.12.3-.27Z" fill="#292974"/>
        <path d="m10.53.07c-.02.58-.22,1.07-.64,1.47-.7.66-1.43,1.29-2.42,1.49-.59.12-1.2-.27-1.32-.81-.05-.22,0-.4.16-.57.41-.45.67-.99.83-1.58h3.39Zm-2.47,1.2c.54-.08,1.05-.43,1.27-.83-.45.17-.84.44-1.27.83Z" fill="#292974"/>
        <path d="m102.51,70.25c-.13.5-.07,1.01-.07,1.52-.02,2.39-.13,4.78-.22,7.17-.02.59-.04,1.18-.11,1.77.42-14.22.43-28.42-1.4-42.57.04,0,.08,0,.12,0,.12.94.25,1.87.35,2.81.22,2.1.46,4.21.64,6.31.19,2.25.34,4.49.45,6.75.08,1.66.14,3.32.19,4.99,0,.07.03.13.05.2v11.06Z" fill="#292974"/>
        <path d="m102.51,98.33c-3.74-.34-7.47.04-11.21-.02,2.14-.2,4.3-.21,6.45-.33-2.27-.26-4.54-.37-6.8-.72,1.4.1,2.81.19,4.21.3,1.81.14,3.62.3,5.42.45.64.05,1.29.11,1.93.16v.17Z" fill="#292974"/>
        <path d="m102.51,94.12c-.34.18-.53.57-.93.69.36-.39.7-.79.93-1.26v.58Z" fill="#292974"/>
        <path d="m18.75,12.13c.12.22.23.38.49.25.13-.07.29-.02.37.1.14.19.3.26.54.06-.12.61-.23.67-.69.4-.22-.13-.3-.02-.26.16.13.66.24,1.32.16,2,0,.08.07.17.12.25.09.17.21.33.28.5.3.66.15,1.07-.5,1.37-.41.19-.84.27-1.28.22-.35-.04-.66.16-1,.14-.05.15.08.2.13.29.58,1.1.83,2.24.22,3.41-.65,1.24-2.81,1.81-4,1.09-.39-.24-.49-.66-.38-1.01.21-.69.19-1.38.2-2.07.01-.64.23-1.21.68-1.66-.06-.09-.13-.04-.19-.06-.15-.04-.37.12-.45-.05-.07-.17.12-.32.23-.45.35-.45.98-.62,1.48-.38.21.1.37.04.55-.01.22-.06.45-.1.7-.16-.64-1.17-.83-2.35-.26-3.62-.19.05-.37.09-.54.14-.26.08-.27-.02-.21-.25.16-.61.71-1.03,1.39-.98.24.02.32,0,.26-.27-.04-.23-.09-.49-.02-.73.03-.09.05-.19.17-.2.11,0,.18.06.21.16.03.08.05.16.08.23.2.61.25.63.83.44.44-.15.88-.24,1.32,0,.15.08.27.18.35.34.11.23.03.34-.22.33-.24,0-.48-.13-.76.01Zm-.49,2.4c.54-.62.21-1.61-.6-1.84-.15-.04-.32-.11-.4.08-.07.16.08.24.2.31.32.18.48.47.58.81.06.21.07.43.22.65Zm-4.17,5.67c0-.37-.02-.64,0-.91.05-.55.14-1.1.72-1.39.08-.04.27-.02.2-.19-.05-.13-.2-.15-.32-.11-.1.03-.2.08-.29.14-.52.34-.9,1.57-.3,2.46Z" fill="#292974"/>
        <path d="m38.76,34.6c.52-.1.98-.16,1.44.03,0,.2-.25.21-.31.37.01.03.02.06.03.07,1.32.4,1.73,1.46,1.93,2.66.08.44.18.85.39,1.25.2.37.36.77.1,1.17-.28.43-.71.49-1.2.46-1.42-.11-2.57-.66-3.28-2.06-.03.45-.05.81-.07,1.17,0,.08.03.19-.05.23-.1.05-.17-.05-.25-.11-1.02-.86-1.16-2.29-.33-3.45.08-.12.29-.23.17-.37-.1-.12-.27.04-.41.07-.16.03-.32.07-.49.07-.44,0-.71-.28-.63-.76.07-.44.02-.84-.11-1.24-.17-.52-.04-1.03.17-1.6-.25.13-.35.28-.39.49-.03.15-.13.25-.29.23-.14-.02-.18-.15-.2-.28-.11-.73.72-1.8,1.24-1.93.19-.05.42-.1.56,0,.35.24.69.12,1.05.07.42-.06.82,0,1.19.23.27.17.44.42.49.73.03.15.07.37-.08.46-.15.09-.22-.11-.31-.19-.11-.1-.24-.1-.35-.06-.15.07-.02.2.01.28.23.65.28,1.31-.03,2.02Zm.95,1.22c-.18,0-.41-.02-.46.18-.05.26.22.24.37.27.39.1.59.38.76.7.1.18.19.37.3.54.05.09.12.21.25.16.11-.03.09-.16.1-.25.13-.68-.63-1.6-1.32-1.61Zm-3.46-2.21c.29-.35.36-.75.52-1.11.04-.09.09-.23-.05-.28-.11-.04-.21.05-.28.14-.27.36-.37.76-.2,1.26Z" fill="#292974"/>
        <path d="m26.39,26.7c-.34-.4-.67-.68-.78-1.11-.1-.42-.05-.84-.06-1.31-.32.17-.39.49-.59.7-.08.09-.14.26-.27.22-.14-.04-.14-.22-.15-.35-.07-.72.28-1.21.92-1.53-.15-.19-.4-.23-.51-.42-.07-.11-.14-.22-.03-.33.1-.09.2-.03.3.03.13.09.27.19.42.26.37.18.49.1.45-.31,0-.1-.04-.19-.04-.28,0-.11.06-.22.2-.23.12-.01.17.07.2.17.03.09.06.18.09.27.05.2.15.24.36.21.16-.02.54-.41.49.19,0,.01.09.05.13.05.65-.03.98.41,1.29.88.11.16.2.33.28.51.18.39.45.68.81.9.44.27.61.64.52,1.07-.1.47-.45.77-.93.88-1.18.28-1.55.17-2.78-.26.03.29.21.35.44.39.54.11,1.01.34,1.33.82.13.19.19.39.2.62.01.44,0,.45-.45.27.15,1.34-.54,2.15-1.64,2.72-.47.24-.97.31-1.48.16-.68-.21-.87-.78-.43-1.34.15-.19.27-.38.19-.64-.23-.73-.14-1.41.35-2.01.03-.04.05-.09.1-.19-.6.13-.93.67-1.48.8-.19-1.06.89-2.17,2.53-1.8Zm-.88,2.92c.27-.4.2-.88.42-1.26.07-.12.13-.27-.03-.36-.17-.09-.3.03-.37.17-.26.47-.31.94-.01,1.45Zm1.8-3.66c-.47-.37-.73-.76-.86-1.23-.02-.06-.07-.11-.11-.09-.05.03-.09.1-.11.16-.14.52.4,1.18,1.08,1.16Z" fill="#292974"/>
        <path d="m53.24,28.57c.18.85-.08,1.41-.64,1.96-.67.65-1.37,1.12-2.31,1.2-.88.08-2.19-.67-2.53-1.49-.18-.43-.12-.82.26-1.01.57-.27.85-.8,1.22-1.24.45-.54.94-1,1.61-1.24.42-.15.84-.24,1.25.16.07-.41.05-.79.2-1.13.04-.1.02-.25.15-.26.12,0,.15.14.21.23.15.24.24.49.26.77.01.18.05.3.27.16.15-.1.33-.09.43.08.1.16.05.34-.08.45-.26.23-.15.32.11.43.6.26.9.74.98,1.37.03.2,0,.38-.24.47-.23.09-.36-.01-.48-.19-.16-.25-.32-.5-.67-.72Zm-3.31-.53c.45-.37.96-.57,1.54-.55.13,0,.22-.12.19-.27-.03-.17-.16-.21-.31-.19-.62.1-1.1.42-1.43,1Z" fill="#292974"/>
        <path d="m66.85,2.99c-.23-.02-.34-.01-.43-.04-.15-.05-.39,0-.44-.14-.06-.19.13-.35.25-.48.44-.48,1.19-.57,1.76-.18.19.13.3.15.39-.09.08-.19.21-.35.44-.26.24.09.24.31.19.52-.02.07-.02.14-.06.2-.19.32-.13.48.26.52.22.03.56.83.45,1.01-.12.18-.31-.02-.46.04,0,.03-.03.08-.02.11.55,1.57-.91,3.24-2.1,3.66-.71.25-2.35-.22-2.81-.81-.39-.5-.34-1.03.15-1.45.09-.08.21-.16.25-.26.23-.67.79-1.11,1.18-1.68.21-.31.54-.49,1.01-.66Zm-1.14,2.24c.59-.67,1.17-1.31,2.07-1.5.08-.02.13-.1.11-.2-.03-.11-.11-.15-.22-.15-.3-.02-.57.09-.83.2-.66.28-1.16,1-1.13,1.66Z" fill="#292974"/>
        <path d="m23.58,34.83c-.6.01-1.13-.59-1.82-.18,1.36.43,1.49,1.61,1.73,2.7.1.46.12.91.59,1.2.25.15.28.4.08.68-.42.58-1.03.82-1.72.66-1.53-.34-2.42-1.4-3.12-2.68-.04.17-.1.37-.15.57-.42-.3-.33-1.11-.15-1.62.16-.47.45-.85.84-1.15.19-.14.3-.26.2-.53-.07-.16-.01-.38-.01-.62.28.17.19.47.37.66.67-.5,1.42-.65,2.23-.44.48.13.77.36.96.75Zm-.92,1.86c0-.42-.46-1.08-.83-1.21-.09-.03-.19-.06-.27.02-.07.08-.07.19.01.26.33.3.53.7.78,1.06.05.07.13.17.23.13.11-.05.06-.17.07-.25Z" fill="#292974"/>
        <path d="m92.74,53.94c-1.52-6.09-2.34-12.34-4.21-18.34.15.47.31.93.46,1.4-.59-3.23-1.37-6.42-1.84-9.68.25.13.2.3.22.53.07.81.29,1.6.47,2.49.15-.45-.15-.77-.06-1.17.2.27.14.54.2.78.11.47.24.93.34,1.39.04.2.15.41-.08.6-.08.07-.05.29.07.31.29.05.27.27.26.44-.01.44.19.83.16,1.3-.03.41.29.89.38,1.37.02.12.07.23,0,.36-.12.22-.03.43.07.62.2.35.36.71.25,1.13-.05.18.02.35.09.52.21.53.23,1.12.38,1.66.18.63.28,1.28.43,1.91.21.97.44,1.94.61,2.92.21,1.2.48,2.39.71,3.58.36,1.91.72,3.83,1.07,5.74,0,.04,0,.08,0,.12Z" fill="#292974"/>
        <path d="m87.08,55.35c-1.75-8.07-2.55-16.31-5.01-24.22.05-.01.09-.02.14-.04.22.65.45,1.3.66,1.96.88,2.8,1.43,5.68,1.99,8.56.56,2.86.97,5.74,1.46,8.62.27,1.57.5,3.14.75,4.71.02.13.02.27.03.41Z" fill="#292974"/>
        <path d="m86.91,62.16c1.05,9.28.77,18.58.39,27.84-.54-3.61-.15-7.26-.21-10.91.29,2.6.19,5.21.17,7.82.29-8.26.41-16.51-.35-24.75Z" fill="#292974"/>
        <path d="m93.43,53.5c.52,1.26.86,2.57,1.15,3.9.61,2.78,1.02,5.59,1.3,8.42.37,3.77.43,7.55.28,11.33-.09,2.36-.22,4.72-.43,7.08-.03.34-.07.68-.14,1.02.03-.57.05-1.15.1-1.72.27-3.77.45-7.55.38-11.33-.06-3.12-.28-6.23-.71-9.32-.4-2.86-.9-5.69-1.68-8.47-.08-.3-.17-.6-.26-.9Z" fill="#292974"/>
        <path d="m99.05,39.54c1.54,8.81,1.97,17.71,2.02,26.64-.28-8.91-.73-17.8-2.02-26.64Z" fill="#292974"/>
        <path d="m95.48,41.57c1.9,5.41,2.69,11.03,3.09,16.72-.72-5.63-1.51-11.24-3.09-16.72Z" fill="#292974"/>
        <path d="m95.16,27.4c.35.52.5,1.12.7,1.69,1.17,3.35,2.09,6.78,2.91,10.23,0,.02,0,.05-.02.2-.27-.99-.51-1.88-.75-2.77-.83-3.06-1.67-6.11-2.78-9.08-.03-.09-.08-.18-.05-.28,0,0,0,0,0,0Z" fill="#292974"/>
        <path d="m90.35,72.9c-.04-.23-.09-.45-.11-.68-.06-.8-.14-1.6-.37-2.37-.04-.14-.13-.3.09-.43.19-.12,0-.33.03-.49.03-.14,0-.35.17-.38.18-.04.24.16.29.29.2.55.4,1.11.27,1.72-.07-.61-.17-1.22-.49-1.83-.14.26-.07.46-.04.65.06.38.12.76.23,1.13.24.8.16,1.59-.08,2.4Z" fill="#292974"/>
        <path d="m88.24,47.78c.5,3.16.7,6.35.71,9.55-.25-3.18-.43-6.37-.71-9.55Z" fill="#292974"/>
        <path d="m85.29,79.09c.28-2.78.72-5.55.48-8.36.46,2.82.12,5.6-.48,8.36Z" fill="#292974"/>
        <path d="m85.25,61.34c-.06,3.21-.12,6.41-.17,9.62-.09-3.21-.18-6.42.07-9.62.04,0,.07,0,.11,0Z" fill="#292974"/>
        <path d="m92.96,58.61c1.54,3.03,1.87,6.34,2.18,9.65-.31-1.63-.44-3.28-.75-4.9-.32-1.63-.79-3.21-1.43-4.74Z" fill="#292974"/>
        <path d="m93.07,42.52c-.64-3.22-1.21-6.45-1.85-9.66.77,3.19,1.36,6.42,1.85,9.66Z" fill="#292974"/>
        <path d="m93.72,74.47c-.05-2.54.06-5.08-.2-7.61.41,1.25.41,6.56.2,7.61Z" fill="#292974"/>
        <path d="m84.88,32.86c1.19,2.83,2.06,5.76,2.81,8.72-.92-2.91-1.73-5.86-2.81-8.72Z" fill="#292974"/>
        <path d="m75.15,32.9c-2.59-.79-5.27-1.23-7.92-1.76,2.69.37,5.35.86,7.92,1.76Z" fill="#292974"/>
        <path d="m88.91,70.32c.25.97.54,1.92.99,2.82.13.26.24.52.61.46.02.22-.27.17-.25.34-.19-.18-.43-.32-.56-.54-.54-.95-.66-2.02-.79-3.08Z" fill="#292974"/>
        <path d="m89.26,75.12c.64,1.84.5,3.76.58,5.65-.17-.93-.16-1.87-.23-2.81-.07-.95-.18-1.9-.35-2.85Z" fill="#292974"/>
        <path d="m74.28,27.88c-1.7-1.08-3.4-2.15-5.1-3.23,1.82.89,3.5,2,5.1,3.23Z" fill="#292974"/>
        <path d="m84.86,55.05c.31,2.07.4,5.17.16,5.68.03-1.92-.2-3.8-.16-5.68Z" fill="#292974"/>
        <path d="m86.71,93.78c-.72-1.12-1.14-2.33-1.05-3.69.12,1.3.73,2.45,1.05,3.69Z" fill="#292974"/>
        <path d="m72.46,23.85c1.06.63,2.08,1.32,3.19,1.86.79.39,1.58.76,2.35,1.16-.55-.14-1.05-.4-1.56-.64-1.33-.62-2.6-1.36-3.81-2.2-.07-.05-.19-.07-.17-.2,0,0,0,0,0,0Z" fill="#292974"/>
        <path d="m62.34,28.55c-.2.2-.37.36-.68.38-.47.03-.94.14-1.42.2-.12.01-.32.07-.34-.11-.02-.18.12-.29.32-.29.03,0,.05,0,.08,0,.57,0,1.15,0,1.7-.2.1-.03.21-.07.33.02Z" fill="#292974"/>
        <path d="m97.82,62.86c-.34-1.96-.67-3.91-1.01-5.87.49,1.93.81,3.9,1.01,5.87Z" fill="#292974"/>
        <path d="m90.1,65.76c.55.06.74.45.92.82.35.77.45,1.6.58,2.53-.54-1.16-.43-2.49-1.5-3.35Z" fill="#292974"/>
        <path d="m68.91,20.99s.09-.01.11,0c1.14.96,2.25,1.96,3.44,2.85,0,0,0,0,0-.01-.14.14-.26.12-.41-.01-1.05-.94-2.1-1.88-3.16-2.82v-.02Z" fill="#292974"/>
        <path d="m91.5,70.3c.42.84.66,2.73.48,3.72-.21-1.24-.25-2.49-.48-3.72Z" fill="#292974"/>
        <path d="m94.91,36.57c.24.38.31.83.44,1.26.46,1.46.9,2.93,1.34,4.4.02.05.02.1-.03.17-.33-1.06-.67-2.12-.98-3.19-.26-.88-.58-1.74-.76-2.64h0Z" fill="#292974"/>
        <path d="m3.51,4.81c.6-.54,1.67-.67,2.02-.22-.71-.16-1.33.27-2.02.22Z" fill="#292974"/>
        <path d="m96.68,54.13c.35.92.4,1.79.6,2.68-.21-.19-.66-2.2-.6-2.68Z" fill="#292974"/>
        <path d="m92.84,80.7c.04,1.36.15,2.72,0,3.95v-3.95Z" fill="#292974"/>
        <path d="m85.9,42.5l.56,3.04-.13.02c-.17-1.02-.33-2.03-.5-3.05.02,0,.05,0,.07-.01Z" fill="#292974"/>
        <path d="m98.94,58.56c.15,1.13.3,2.25.45,3.38-.27-1.11-.41-2.24-.45-3.38Z" fill="#292974"/>
        <path d="m96.37,52.93c-.19-.75-.31-1.52-.44-2.28.03,0,.07-.01.1-.02.15.76.31,1.51.46,2.27-.04.01-.08.02-.12.04Z" fill="#292974"/>
        <path d="m90.84,70.8c.07.89.25,1.77.21,2.67-.12-.89-.23-1.78-.35-2.66.05,0,.09,0,.14,0Z" fill="#292974"/>
        <path d="m73.3,28.3c.93.44,1.87.88,2.8,1.33l-.04.09-2.8-1.34s.03-.05.04-.08Z" fill="#292974"/>
        <path d="m90.15,50.81c-.25-.96-.51-1.92-.76-2.88.36.93.66,1.88.76,2.88Z" fill="#292974"/>
        <path d="m91.46,62.67c-.37-.27-.52-.62-.84-.8-.42-.23-.62.09-.85.34.07-.5.56-.73.96-.47.24.16.46.42.74.93Z" fill="#292974"/>
        <path d="m92.3,67.08c-.41-.74-.76-1.51-1.45-2.2.66.42,1.22,1.28,1.45,2.2Z" fill="#292974"/>
        <path d="m72.67,28.98c-.96-.15-1.87-.45-2.76-.83.92.28,1.84.55,2.76.83Z" fill="#292974"/>
        <path d="m99.35,70.37c-.11-.02-.12-.08-.13-.13-.07-.52-.15-1.05-.22-1.57-.01-.08-.02-.17.09-.19.09-.01.11.07.12.13.05.58.09,1.17.14,1.76Z" fill="#292974"/>
        <path d="m97.46,58.56c-.21-.49-.24-.91-.15-1.33.19.39.32.78.15,1.33Z" fill="#292974"/>
        <path d="m97.64,59c.14.66.28,1.31.42,1.97-.03,0-.07.01-.1.02-.18-.65-.35-1.3-.32-1.99Z" fill="#292974"/>
        <path d="m80.17,29.26c-.87-.11-1.69-.38-2.44-.83.79.35,1.62.56,2.44.83Z" fill="#292974"/>
        <path d="m99.42,72.38c.12-.54-.14-1.05-.11-1.58.04,0,.08,0,.12-.01.06.53.12,1.06.18,1.58-.06,0-.12,0-.19,0Z" fill="#292974"/>
        <path d="m68.91,20.99v.02c-.02.21-.11.12-.19.04-.33-.36-.66-.73-.97-1.1.45.27.77.7,1.16,1.04Z" fill="#292974"/>
        <path d="m91.9,68.71c-.09-.19-.18-1.41-.13-1.62.13.53.18,1.07.13,1.62Z" fill="#292974"/>
        <path d="m79.56,32.08q.6.14,2.01-.43c-.61.63-1.3.78-2.01.43Z" fill="#292974"/>
        <path d="m90.55,90.01v-2.57h.05v2.57s-.04,0-.05,0Z" fill="#292974"/>
        <path d="m91.06,25.14v-2.09s.02,0,.03,0v2.09s-.02,0-.03,0Z" fill="#292974"/>
        <path d="m88.53,64.04c.14.58.27,1.15.41,1.73-.28-.54-.38-1.13-.41-1.73Z" fill="#292974"/>
        <path d="m90.49,91.89v-1.52s.03,0,.04,0v1.52s-.03,0-.04,0Z" fill="#292974"/>
        <path d="m83.49,85.95c-.08-.24.07-.42.09-.62,0-.05.06-.1.12-.07.06.02.07.08.04.14-.09.18-.08.4-.25.55Z" fill="#292974"/>
        <path d="m69.47,21.73c.27.28.54.57.81.85-.35-.2-.6-.5-.81-.85Z" fill="#292974"/>
        <path d="m95.85,50.28c-.07-.28-.14-.55-.2-.83.04,0,.08-.02.12-.03.17.25.06.57.08.86Z" fill="#292974"/>
        <path d="m83.96,83.6c.03-.18.05-.36.08-.54.01-.07.06-.13.14-.12.09.02.08.1.06.16-.06.17-.12.35-.19.52-.03,0-.06-.01-.1-.02Z" fill="#292974"/>
        <path d="m83.98,84.24c-.06.23-.12.46-.2.78-.16-.37.05-.57.07-.81.04,0,.09.02.13.03Z" fill="#292974"/>
        <path d="m99.81,74.69c-.14-.27-.14-.56-.16-.95.19.36.06.68.16.95Z" fill="#292974"/>
        <path d="m94.92,36.57c-.21-.38-.26-.81-.39-1.22.16.4.36.78.38,1.22,0,0,0,0,0,0Z" fill="#292974"/>
        <path d="m75.68,99.53c8.53-.37,17.24.13,25.96.12h-2.55s0,.04,0,.05c.42.02.84.05,1.26.07-4.98-.16-9.94.1-14.92.23,1.67-.1,3.33-.2,5-.3-4.98-.06-9.97-.1-14.75-.18Z" fill="#292974"/>
        <path d="m99.37,98.75c-3.73.26-7.45.48-11.19.54,3.73-.25,7.45-.49,11.19-.54Z" fill="#292974"/>
        <path d="m48.1,98.09c.47-.17.97-.08,1.45-.06.36.02.71-.03,1.06-.04.08,0,.18-.01.19.1,0,.03-.06.1-.1.1-.87,0-1.73,0-2.6,0,0-.04,0-.07,0-.11Z" fill="#292974"/>
        <path d="m22.48,97.63c-1.12-.07-2.25-.08-3.36-.32,1.12.06,2.25.12,3.37.18,0,.05,0,.09-.01.14Z" fill="#292974"/>
        <path d="m11.55,97.28h3.79s0,.04,0,.05h-3.79s0-.04,0-.05Z" fill="#292974"/>
        <path d="m61.53,98.14c-.05-.13-.06-.26.12-.27.65-.05,1.3.1,1.95,0,.07-.01.14.02.13.11-.01.09-.09.07-.16.07-.68.02-1.37-.05-2.05.09h0Z" fill="#292974"/>
        <path d="m58.34,98.09c.54-.31,1.12-.08,1.69-.1-.54.23-1.12.13-1.69.1Z" fill="#292974"/>
        <path d="m71.39,97.77c-.96.16-1.91.08-2.85-.1.95.02,1.9.17,2.85.1Z" fill="#292974"/>
        <path d="m46.12,98.09c-.83.25-1.66-.08-2.49.15,0-.05,0-.1,0-.15h2.49Z" fill="#292974"/>
        <path d="m52.62,98.05c.55.09,1.13-.24,1.72.06-.61.21-1.16-.02-1.72-.06Z" fill="#292974"/>
        <path d="m28.62,98.34c-.09.09-.19-.06-.28.05.12.13.24.27.36.41.05.06.06.13-.02.17-.06.03-.11,0-.13-.06-.1-.2-.28-.33-.45-.47-.07-.06-.18-.13-.11-.23.06-.09.17-.05.26-.02.13.04.25.1.38.15Z" fill="#292974"/>
        <path d="m56.66,97.99c.41-.03.77-.2,1.22.11-.47.06-.82.22-1.22-.11Z" fill="#292974"/>
        <path d="m23.47,97.57c.53,0,1.05.16,1.33.13h-1.34s0-.09,0-.13Z" fill="#292974"/>
        <path d="m51.09,98.17c.38-.21.77-.07,1.15-.2.06-.02.14,0,.15.09,0,.06-.05.1-.1.1-.4,0-.8,0-1.2,0Z" fill="#292974"/>
        <path d="m27.53,97.87h-1.19c.37-.14.73-.1,1.19,0Z" fill="#292974"/>
        <path d="m61.53,98.14c-.38-.03-.75-.05-1.13-.08,0-.04.01-.08.02-.13.38,0,.77-.07,1.12.21,0,0,0,0,0,0Z" fill="#292974"/>
        <path d="m17.45,97.32c-.31-.02-.63-.03-.94-.05.32-.05.64-.14.94.05Z" fill="#292974"/>
        <path d="m76.48,97.28c.11-.24.25-.46.55-.62-.09.35-.37.44-.55.62Z" fill="#292974"/>
        <path d="m37.94,96.17c-.25.08-.5.12-.77.05.28-.18.53-.11.77-.05Z" fill="#292974"/>
        <path d="m90.03,2.61c-.66-.23-1.21-.06-1.75-.07-.09,0-.21.04-.27-.05-.07-.13.07-.19.14-.27.81-.89,1.98-.94,2.85-.12.15.14.22.15.34-.03.16-.24.36-.44.63-.63.04.45-.25.76-.34,1.16.56,0,1.09.06,1.59.29.51.24.95.56,1.18,1.1.07.17.12.34.12.52,0,.14,0,.31-.12.38-.13.08-.25-.07-.35-.15-.36-.29-.69-.62-1.16-.86.57,1.46.05,2.76-.52,4-.75,1.62-3.01,2.24-4.55,1.35-.98-.57-1.3-1.6-.73-2.58.38-.64.64-1.33.95-2,.4-.86.84-1.75,2-2.05Zm-1.24,3.25c.01-.05.02-.1.04-.15.28-.77.57-1.52,1.34-1.95.09-.05.3-.05.24-.21-.05-.16-.23-.17-.39-.13-.43.1-.73.38-.96.73-.35.52-.58,1.08-.28,1.72Zm-.41,1.36c-.02-.18-.13-.27-.29-.28-.15,0-.26.07-.28.23-.02.16.08.26.23.27.16.02.29-.05.34-.22Z" fill="#292974"/>
        <path d="m76.55,12.09c.94,0,1.26.22,1.59,1.07.27.68.5,1.35,1.14,1.82.33.24.22.64-.17.88-.57.34-1.2.36-1.8.18-1.59-.46-1.94-1.04-2.08-2.55-.22.03-.35.27-.61.25-.1-.48.11-.86.46-1.11.41-.29.74-.62,1.03-1.02.26-.36.64-.58,1.12-.67-.11.45-.47.72-.68,1.14Zm.71,3.23c-.44-.45-.88-.78-1.19-1.23-.03-.05-.09-.06-.15-.03-.08.05-.08.14-.07.22.07.55.7,1.06,1.4,1.04Z" fill="#292974"/>
        <path d="m100.6,31.79c.42.68.86,1.35,1.06,2.14-.48-.65-.77-1.4-1.06-2.14Z" fill="#292974"/>
        <path d="m54.64,86.32c-.22.15-.45.18-.7.11-.09-.02-.21-.08-.23.07-.03.25.15.49.04.76-.02.05.18.18.26.28.08.1.21.01.3.11-.35.38-.08.7.14,1.1-.62,0-1.2-.03-1.78,0-1.73.1-3.46.05-5.19,0-.37,0-.74.06-1.11.07-.11,0-.27.11-.33-.13-.04-.16-.1-.3.06-.41.19-.12.18-.2-.02-.32-.19-.11-.28-.35-.51-.43-.05-.02-.09-.06-.07-.13.02-.07.08-.07.13-.06.17.02.34-.04.46-.13.1-.08.2-.21.22-.33.01-.07-.22-.08-.26-.13-.19-.24-.68-.01-.72-.47,0-.08-.06-.16,0-.21.28-.24.11-.45-.02-.67-.04-.07-.19-.12-.07-.23.06-.06.14-.09.25-.09.54-.01,1.09-.06,1.63-.09.19,0,.17-.14.19-.26.09-.69.19-1.38.26-2.07.05-.43-.13-.84-.17-1.26-.1-.88-.29-1.75-.49-2.62-.06-.27-.18-.46-.47-.55-.91-.29-1.81-.55-2.76-.17-.2.08-.27,0-.21-.19.12-.42.32-.82.57-1.18.09-.13.23-.13.36-.17,1.59-.44,3.21-.37,4.79-.09,2.03.36,3.88-.06,5.68-.91.25-.12.36-.13.37.19.02.74.06,1.48.1,2.22,0,.16,0,.28-.21.22-.62-.19-1.19.13-1.79.18-.22.02-.27.25-.32.44-.12.53-.19,1.08-.23,1.62-.03.37-.11.73-.12,1.1-.03,1.06.22,2.09.34,3.13.02.18.11.25.31.24.27-.01.55.01.82.01.14,0,.25.07.18.19-.29.51.05.86.28,1.25Zm-7.38.56c-.47-.18-.73.08-.99.5.44-.05.62-.48,1-.51.13.31.43.06.64.2-.19.1-.38-.01-.56.02-.18.03-.37.01-.45.27.16.01.29.04.43.03,1.91-.08,3.82-.07,5.74-.07.04,0,.08,0,.12,0,.09,0,.17-.04.15-.14-.02-.08-.11-.1-.17-.07-.38.16-.77-.02-1.15.05-.09.02-.22.06-.27-.1.37-.13.88.13,1.09-.41-2.02-.2-4.01-.1-6.01.03.52.07,1.04.04,1.55.16-.37.02-.73.03-1.1.05Zm3.99-5.15c.07-.32-.07-.76-.11-1.21-.06-.68-.13-1.37-.32-2.03-.05-.18-.14-.4-.33-.36-.38.07-.81-.08-1.15.2-.04.03-.01.13-.03.2-.15.59-.15,1.19-.2,1.79-.12,1.34-.19,2.68.2,4,.21.68.19.69.88.67.15,0,.3-.02.45,0,.23.01.33-.07.36-.32.11-.93.19-1.85.23-2.92Zm-3.68,4.16c-.54,0-1.09.04-1.62.18.54,0,1.08-.06,1.62-.18Z" fill="#292974"/>
        <path d="m38.42,93.61h-2.45s0-.03,0-.05h2.46s0,.03,0,.05Z" fill="#292974"/>
        <path d="m36.07,91.25c1.73-.34,3.47-.07,5.21-.06-1.73.03-3.47.17-5.21.06Z" fill="#292974"/>
        <path d="m62.58,86.23c-.77.05-1.54.08-2.31-.08.77-.07,1.54-.03,2.31.08Z" fill="#292974"/>
        <path d="m63.65,91.27c-.82.1-1.54-.09-2.28-.03.57-.14,1.8-.13,2.28.03Z" fill="#292974"/>
        <path d="m58.46,88.29c.34-.15.68-.05,1.01-.01-.33.21-.68-.03-1.01.01Z" fill="#292974"/>
        <path d="m51.75,86.78c-.61.46-1.25.03-1.58.09.33-.03.95-.12,1.58-.09Z" fill="#292974"/>
      </g>
      <g>
        <g>
          <path d="m88.82,5.71c.28-.77.57-1.52,1.34-1.95.09-.05.3-.05.24-.21-.05-.16-.23-.17-.39-.13-.43.1-.73.38-.96.73-.35.52-.58,1.08-.28,1.72.01-.05.02-.1.04-.15" fill="#fff"/>
          <path d="m88.37,7.22c-.02-.18-.13-.27-.29-.28-.15,0-.26.07-.28.23-.02.16.08.26.23.27.16.02.29-.05.34-.22Z" fill="#fff"/>
        </g>
        <path d="m94.19,17.67c-.16.4-.02.76.16,1.1.33.62,1.11,1.05,1.7.95.15-.03.38-.06.35-.27-.03-.19-.22-.1-.35-.09-.57.04-1.03-.17-1.31-.68-.19-.33-.42-.64-.55-1.01Z" fill="#fff"/>
        <path d="m77.26,15.32c-.44-.45-.88-.78-1.19-1.23-.03-.05-.09-.06-.15-.03-.08.05-.08.14-.07.22.07.55.7,1.06,1.4,1.04Z" fill="#fff"/>
        <path d="m49.92,28.03c.45-.37.96-.57,1.54-.55.13,0,.22-.12.19-.27-.03-.17-.16-.21-.31-.19-.62.1-1.1.42-1.43,1Z" fill="#fff"/>
        <path d="m53.96,19.35c.49.01.92-.1,1.25-.48.09-.1.13-.21.05-.33-.05-.07-.12-.04-.18,0-.38.25-.81.44-1.11.82Z" fill="#fff"/>
        <path d="m65.71,5.23c.59-.67,1.17-1.31,2.07-1.5.08-.02.13-.1.11-.2-.03-.11-.11-.15-.22-.15-.3-.02-.57.09-.83.2-.66.28-1.16,1-1.13,1.66Z" fill="#fff"/>
        <g>
          <path d="m41.61,3.83c-.1-.24-.28-.27-.47-.3-.74-.13-1.36-.79-1.46-1.52-.01-.09.06-.27-.12-.24-.13.02-.11.17-.11.28-.01,1.14,1.02,2.01,2.17,1.79Z" fill="#fff"/>
          <path d="m42.88,3.81c-.02-.18-.13-.28-.3-.28-.16,0-.26.09-.27.25,0,.17.08.3.26.31.17,0,.26-.12.3-.27Z" fill="#fff"/>
        </g>
        <path d="m8.06,1.27c.54-.08,1.05-.43,1.27-.83-.45.17-.84.44-1.27.83Z" fill="#fff"/>
        <path d="m18.26,14.52c.54-.62.21-1.61-.6-1.84-.15-.04-.32-.11-.4.08-.07.16.08.24.2.31.32.18.48.47.58.81.06.21.07.43.22.65Z" fill="#fff"/>
        <path d="m14.09,19.28c.05-.55.14-1.1.72-1.39.08-.04.27-.02.2-.19-.05-.13-.2-.15-.32-.11-.1.03-.2.08-.29.14-.52.34-.9,1.57-.3,2.46,0-.37-.02-.64,0-.91" fill="#fff"/>
        <path d="m22.66,36.69c0-.42-.46-1.08-.83-1.21-.09-.03-.19-.06-.27.02-.07.08-.07.19.01.26.33.3.53.7.78,1.06.05.07.13.17.23.13.11-.05.06-.17.07-.25Z" fill="#fff"/>
        <path d="m25.52,29.62c.27-.4.2-.88.42-1.26.07-.12.13-.27-.03-.36-.17-.09-.3.03-.37.17-.26.47-.31.94-.01,1.45Z" fill="#fff"/>
        <path d="m27.31,25.96c-.47-.37-.73-.76-.86-1.23-.02-.06-.07-.11-.11-.09-.05.03-.09.1-.11.16-.14.52.4,1.18,1.08,1.16Z" fill="#fff"/>
        <path d="m36.25,33.61c.29-.35.36-.75.52-1.11.04-.09.09-.23-.05-.28-.11-.04-.21.05-.28.14-.27.36-.37.76-.2,1.26Z" fill="#fff"/>
        <path d="m39.7,35.82c-.18,0-.41-.02-.46.18-.05.26.22.24.37.27.39.1.59.38.76.7.1.18.19.37.3.54.05.09.12.21.25.16.11-.03.09-.16.1-.25.13-.68-.63-1.6-1.32-1.61Z" fill="#fff"/>
        <path d="m31.01,49.37c-.27-.37-.67-.55-.71-1.04-.03-.41-.19-.81-.3-1.24-.4.71.14,1.95,1.01,2.29Z" fill="#fff"/>
        <path d="m70.39,36.8c0-.45-.77-1.05-1.22-.95-.09.02-.19.05-.2.17,0,.09.05.16.13.18.43.09.74.33.94.72.04.09.13.15.24.11.11-.04.11-.14.11-.24Z" fill="#fff"/>
        <path d="m65.75,33.85c-.41.29-.45.62-.36.99.02.09.08.18.2.18.12,0,.16-.1.16-.2,0-.3,0-.59,0-.97Z" fill="#fff"/>
      </g>
    </g>
  </g>
  <g>
    <g>
      <path d="m114.26,34.38c0-6.02,0-7.13-.08-8.39-.08-1.35-.4-1.98-1.7-2.26-.32-.08-.99-.12-1.54-.12-.44,0-.67-.08-.67-.36s.28-.36.87-.36c1.07,0,2.22.04,3.21.04,1.03.04,1.94.08,2.49.08,1.27,0,9.15,0,9.9-.04.75-.08,1.39-.16,1.7-.24.2-.04.44-.16.63-.16s.24.16.24.36c0,.28-.2.75-.32,2.57-.04.4-.12,2.14-.2,2.61-.04.2-.12.44-.4.44s-.36-.2-.36-.55c0-.28-.04-.95-.24-1.43-.28-.71-.67-1.19-2.65-1.43-.67-.08-4.83-.16-5.62-.16-.2,0-.28.12-.28.4v10.02c0,.28.04.44.28.44.87,0,5.42,0,6.34-.08.95-.08,1.54-.2,1.9-.59.28-.32.44-.51.63-.51.16,0,.28.08.28.32s-.16.87-.32,2.89c-.04.79-.16,2.38-.16,2.65,0,.32,0,.75-.36.75-.28,0-.36-.16-.36-.36-.04-.4-.04-.91-.16-1.43-.2-.79-.75-1.39-2.22-1.54-.75-.08-4.67-.12-5.62-.12-.2,0-.24.16-.24.4v3.13c0,1.35-.04,4.99,0,6.14.08,2.73.71,3.33,4.75,3.33,1.03,0,2.69,0,3.72-.48,1.03-.48,1.5-1.31,1.78-2.93.08-.44.16-.59.44-.59.32,0,.32.32.32.71,0,.91-.32,3.6-.51,4.4-.28,1.03-.63,1.03-2.14,1.03-2.97,0-5.15-.08-6.85-.12-1.7-.08-2.93-.12-4.12-.12-.44,0-1.31,0-2.26.04-.91,0-1.94.08-2.73.08-.52,0-.79-.12-.79-.4,0-.2.16-.32.63-.32.59,0,1.07-.08,1.43-.16.79-.16.99-1.03,1.15-2.18.2-1.66.2-4.79.2-8.43v-6.97Z" fill="#f79838"/>
      <path d="m154.09,52.44c-1.23.46-3.19.8-4.82.8-9,0-12.5-6.66-12.5-12.19,0-5,3.59-11.88,12.59-11.88,7.34,0,12.43,4.45,12.43,11.64,0,5.4-3.41,8.81-5.34,10.1l6.17,3.16c6.48,3.32,10.56,3.65,12.65,3.65,1.6,0,3.87-.25,5.99-1.07.18-.06.34-.15.46-.15.15,0,.28.12.28.28,0,.18-.15.28-.37.37-1.84.89-5.31,2.3-9.73,2.3-4.64,0-7.92-1.2-12.99-4.18l-4.82-2.82Zm3.41-10.81c0-7.43-4.6-10.99-8.84-10.99s-7.61,2.58-7.61,9.7,4.42,11.36,9.36,11.36c2.46,0,7.09-1.08,7.09-10.07Z" fill="#f79838"/>
      <path d="m169.14,38.5c0-4.67,0-5.53-.06-6.51-.06-1.04-.31-1.53-1.32-1.75-.25-.06-.77-.09-1.2-.09-.34,0-.52-.06-.52-.28s.21-.28.67-.28c1.63,0,3.56.09,4.48.09.74,0,2.67-.09,3.78-.09.46,0,.68.06.68.28s-.18.28-.49.28c-.34,0-.52.03-.89.09-.83.15-1.07.68-1.14,1.75-.06.98-.06,1.84-.06,6.51v4.3c0,4.45.89,6.32,2.39,7.55,1.38,1.14,2.79,1.26,3.84,1.26,1.35,0,3.01-.43,4.24-1.66,1.69-1.69,1.78-4.45,1.78-7.61v-3.84c0-4.67,0-5.53-.06-6.51-.06-1.04-.31-1.53-1.32-1.75-.25-.06-.77-.09-1.11-.09s-.52-.06-.52-.28.21-.28.64-.28c1.57,0,3.5.09,3.53.09.37,0,2.3-.09,3.5-.09.43,0,.64.06.64.28s-.18.28-.55.28c-.34,0-.52.03-.89.09-.83.15-1.08.68-1.14,1.75-.06.98-.06,1.84-.06,6.51v3.28c0,3.41-.34,7.03-2.92,9.24-2.18,1.87-4.39,2.21-6.39,2.21-1.63,0-4.57-.09-6.82-2.12-1.57-1.41-2.73-3.68-2.73-8.14v-4.48Z" fill="#f79838"/>
      <path d="m198.39,38.5c0-4.67,0-5.53-.06-6.51-.06-1.04-.37-1.57-1.04-1.72-.34-.09-.74-.12-1.11-.12-.31,0-.49-.06-.49-.31,0-.18.25-.25.74-.25,1.17,0,3.1.09,3.99.09.77,0,2.58-.09,3.75-.09.4,0,.64.06.64.25,0,.25-.18.31-.49.31s-.55.03-.92.09c-.83.15-1.07.68-1.14,1.75-.06.98-.06,1.84-.06,6.51v5.4c0,2.98,0,5.4.12,6.72.09.83.31,1.38,1.23,1.5.43.06,1.11.12,1.57.12.34,0,.49.09.49.25,0,.21-.25.31-.58.31-2.03,0-3.96-.09-4.79-.09-.71,0-2.64.09-3.87.09-.4,0-.61-.09-.61-.31,0-.15.12-.25.49-.25.46,0,.83-.06,1.11-.12.61-.12.8-.65.89-1.54.15-1.29.15-3.71.15-6.69v-5.4Z" fill="#f79838"/>
      <path d="m215.51,34.38c0-6.02,0-7.13-.08-8.39-.08-1.35-.4-1.98-1.7-2.26-.32-.08-.99-.12-1.54-.12-.44,0-.67-.08-.67-.36s.28-.36.87-.36c2.1,0,4.59.12,5.39.12,1.94,0,3.48-.12,4.83-.12,7.17,0,8.43,3.84,8.43,5.94,0,3.25-1.86,5.19-4.04,6.93,3.25,1.11,7.21,3.92,7.21,8.55,0,4.24-3.29,8.63-10.57,8.63-.48,0-1.62-.08-2.77-.12-1.19-.08-2.38-.12-2.97-.12-.44,0-1.31,0-2.26.04-.91,0-1.94.08-2.73.08-.52,0-.79-.12-.79-.4,0-.2.16-.32.63-.32.59,0,1.07-.08,1.43-.16.79-.16.99-1.03,1.15-2.18.2-1.66.2-4.79.2-8.43v-6.97Zm4.75.67c0,.32.12.4.28.44.36.08.95.12,1.86.12,1.31,0,2.18-.16,2.85-.75,1.03-.83,1.62-2.26,1.62-4.2,0-2.65-1.54-6.14-4.95-6.14-.55,0-.91,0-1.31.08-.28.08-.36.24-.36.67v9.78Zm5.23,3.17c-.83-.59-1.74-.87-3.29-.95-.71-.04-1.11-.04-1.7-.04-.16,0-.24.08-.24.28v9.38c0,2.61.12,3.29,1.39,3.8,1.07.44,1.98.48,2.89.48,1.78,0,4.79-.95,4.79-5.07,0-2.45-.83-5.78-3.84-7.88Z" fill="#f79838"/>
      <path d="m244.34,38.5c0-4.67,0-5.53-.06-6.51-.06-1.04-.37-1.57-1.04-1.72-.34-.09-.74-.12-1.11-.12-.31,0-.49-.06-.49-.31,0-.18.25-.25.74-.25,1.17,0,3.1.09,3.99.09.77,0,2.58-.09,3.75-.09.4,0,.64.06.64.25,0,.25-.18.31-.49.31s-.55.03-.92.09c-.83.15-1.07.68-1.14,1.75-.06.98-.06,1.84-.06,6.51v5.4c0,2.98,0,5.4.12,6.72.09.83.31,1.38,1.23,1.5.43.06,1.11.12,1.57.12.34,0,.49.09.49.25,0,.21-.25.31-.58.31-2.03,0-3.96-.09-4.79-.09-.71,0-2.64.09-3.87.09-.4,0-.61-.09-.61-.31,0-.15.12-.25.49-.25.46,0,.83-.06,1.11-.12.61-.12.8-.65.89-1.54.15-1.29.15-3.71.15-6.69v-5.4Z" fill="#f79838"/>
      <path d="m263.83,43.9c0,3.93,0,6.05.65,6.6.52.46,1.32.68,3.71.68,1.63,0,2.82-.03,3.59-.86.37-.4.74-1.26.8-1.84.03-.28.09-.46.34-.46.21,0,.25.15.25.52,0,.34-.21,2.64-.46,3.53-.18.67-.34.83-1.93.83-2.21,0-3.81-.06-5.19-.09-1.38-.06-2.49-.09-3.75-.09-.34,0-1.01,0-1.75.03-.71,0-1.5.06-2.12.06-.4,0-.61-.09-.61-.31,0-.15.12-.25.49-.25.46,0,.83-.06,1.11-.12.61-.12.77-.8.89-1.69.15-1.29.15-3.71.15-6.54v-5.4c0-4.67,0-5.53-.06-6.51-.06-1.04-.31-1.53-1.32-1.75-.25-.06-.61-.09-1.01-.09-.34,0-.52-.06-.52-.28s.21-.28.68-.28c1.44,0,3.38.09,4.21.09.74,0,2.98-.09,4.17-.09.43,0,.64.06.64.28s-.18.28-.55.28c-.34,0-.83.03-1.2.09-.83.15-1.08.68-1.14,1.75-.06.98-.06,1.84-.06,6.51v5.4Z" fill="#f79838"/>
      <path d="m284.18,43.9c0,3.93,0,6.05.65,6.6.52.46,1.32.68,3.71.68,1.63,0,2.82-.03,3.59-.86.37-.4.74-1.26.8-1.84.03-.28.09-.46.34-.46.21,0,.25.15.25.52,0,.34-.21,2.64-.46,3.53-.18.67-.34.83-1.93.83-2.21,0-3.81-.06-5.19-.09-1.38-.06-2.49-.09-3.75-.09-.34,0-1.01,0-1.75.03-.71,0-1.5.06-2.12.06-.4,0-.61-.09-.61-.31,0-.15.12-.25.49-.25.46,0,.83-.06,1.11-.12.61-.12.77-.8.89-1.69.15-1.29.15-3.71.15-6.54v-5.4c0-4.67,0-5.53-.06-6.51-.06-1.04-.31-1.53-1.32-1.75-.25-.06-.61-.09-1.01-.09-.34,0-.52-.06-.52-.28s.21-.28.68-.28c1.44,0,3.38.09,4.21.09.74,0,2.98-.09,4.17-.09.43,0,.64.06.64.28s-.18.28-.55.28c-.34,0-.83.03-1.2.09-.83.15-1.08.68-1.14,1.75-.06.98-.06,1.84-.06,6.51v5.4Z" fill="#f79838"/>
      <path d="m300.7,38.5c0-4.67,0-5.53-.06-6.51-.06-1.04-.37-1.57-1.04-1.72-.34-.09-.74-.12-1.11-.12-.31,0-.49-.06-.49-.31,0-.18.25-.25.74-.25,1.17,0,3.1.09,3.99.09.77,0,2.58-.09,3.75-.09.4,0,.64.06.64.25,0,.25-.18.31-.49.31s-.55.03-.92.09c-.83.15-1.07.68-1.14,1.75-.06.98-.06,1.84-.06,6.51v5.4c0,2.98,0,5.4.12,6.72.09.83.31,1.38,1.23,1.5.43.06,1.11.12,1.57.12.34,0,.49.09.49.25,0,.21-.25.31-.58.31-2.03,0-3.96-.09-4.79-.09-.71,0-2.64.09-3.87.09-.4,0-.61-.09-.61-.31,0-.15.12-.25.49-.25.46,0,.83-.06,1.11-.12.61-.12.8-.65.89-1.54.15-1.29.15-3.71.15-6.69v-5.4Z" fill="#f79838"/>
      <path d="m312.7,41.2c0-5.25,3.47-12.03,12.68-12.03,7.64,0,12.4,4.45,12.4,11.48s-4.91,12.59-12.71,12.59c-8.81,0-12.37-6.6-12.37-12.03Zm20.78.58c0-6.88-3.96-11.14-9-11.14-3.53,0-7.55,1.96-7.55,9.61,0,6.39,3.53,11.45,9.43,11.45,2.15,0,7.12-1.04,7.12-9.92Z" fill="#f79838"/>
      <path d="m347.7,48.63c.06,2.39.46,3.19,1.08,3.41.52.18,1.1.21,1.6.21.34,0,.52.06.52.25,0,.25-.28.31-.71.31-2,0-3.22-.09-3.81-.09-.28,0-1.72.09-3.32.09-.4,0-.67-.03-.67-.31,0-.18.18-.25.49-.25.4,0,.95-.03,1.38-.15.8-.25.92-1.14.95-3.81l.28-18.17c0-.61.09-1.04.4-1.04.34,0,.61.4,1.14.95.37.4,5.03,5.4,9.52,9.85,2.09,2.09,6.23,6.51,6.75,7h.15l-.31-13.78c-.03-1.87-.31-2.46-1.04-2.76-.46-.18-1.2-.18-1.63-.18-.37,0-.49-.09-.49-.28,0-.25.34-.28.8-.28,1.6,0,3.07.09,3.71.09.34,0,1.5-.09,3.01-.09.4,0,.71.03.71.28,0,.18-.18.28-.55.28-.31,0-.55,0-.92.09-.86.25-1.1.89-1.14,2.61l-.34,19.37c0,.68-.12.95-.4.95-.34,0-.71-.34-1.04-.68-1.93-1.84-5.86-5.86-9.06-9.03-3.35-3.32-6.75-7.15-7.31-7.74h-.09l.34,12.89Z" fill="#f79838"/>
    </g>
    <g>
      <path d="m110.26,74.8c19.26-.67,38.66-.67,57.93,0-19.27.67-38.66.67-57.93,0h0Z" fill="#292974"/>
      <path d="m368.2,74.8c-19.26.67-38.66.67-57.93,0,19.27-.67,38.66-.67,57.93,0h0Z" fill="#292974"/>
      <g>
        <g>
          <path d="m171.07,75.79v-4.39c0-.2,0-.36,0-.48,0-.12-.01-.23-.02-.34-.02-.23-.06-.4-.13-.52s-.22-.2-.44-.24c-.05-.02-.13-.03-.22-.03-.09,0-.17,0-.23,0-.07,0-.11-.03-.11-.08,0-.07.07-.11.21-.11h.48c.17,0,.33,0,.48.01l.54.03h1.44c.36,0,.7,0,1.01,0,.31,0,.51,0,.59,0,.26-.02.45-.04.57-.07.04,0,.07-.02.09-.04.03-.02.06-.03.09-.03s.05.04.05.12c0,.04-.01.11-.04.21s-.05.23-.07.42c0,.04,0,.09,0,.17,0,.08-.01.17-.02.26,0,.09-.02.18-.02.27,0,.08-.01.14-.02.18,0,.04-.02.07-.03.1s-.03.05-.06.05c-.07,0-.11-.06-.11-.17,0-.04,0-.12-.01-.21,0-.1-.03-.19-.07-.27-.04-.11-.12-.2-.24-.27s-.35-.13-.71-.18c-.05,0-.17-.02-.36-.02-.19,0-.38,0-.58-.01-.2,0-.39,0-.57,0h-.31c-.05,0-.08.04-.08.13v3.67c0,.09.03.13.08.13h1c.23,0,.46,0,.67,0,.21,0,.36-.01.44-.02.16-.02.29-.04.39-.05s.18-.06.24-.13c.1-.12.16-.17.2-.17.04,0,.07.04.07.11,0,.04-.01.12-.04.24-.03.12-.05.28-.07.5,0,.07-.02.15-.02.23,0,.08,0,.17-.01.25,0,.08,0,.16-.01.23,0,.07,0,.11,0,.14,0,.05,0,.11-.01.17s-.04.09-.08.09c-.06,0-.09-.04-.09-.12,0-.07,0-.14,0-.21,0-.07-.02-.14-.05-.23-.03-.1-.08-.19-.17-.29-.09-.09-.26-.15-.52-.18-.09,0-.23-.02-.42-.03s-.39-.02-.58-.02c-.2,0-.39,0-.56-.01-.17,0-.29,0-.34,0-.06,0-.09.03-.09.09v3.43c0,.23.03.42.07.56.04.14.12.25.23.33.11.08.26.13.46.16.2.03.46.04.79.04.18,0,.39,0,.64-.02s.46-.06.64-.13c.18-.07.31-.18.4-.33.09-.15.16-.36.2-.63.03-.13.07-.2.12-.2.04,0,.07.02.07.07,0,.04,0,.09,0,.13,0,.03,0,.1-.02.21-.01.11-.03.24-.05.37-.02.14-.04.27-.05.41s-.04.24-.05.31c-.03.09-.05.16-.08.2-.03.05-.07.08-.12.1-.05.02-.12.04-.2.04-.08,0-.19,0-.32,0-.51,0-.94,0-1.31-.01-.37,0-.68-.02-.94-.03-.26-.02-.47-.03-.64-.03-.17,0-.3,0-.4,0h-.17c-.1,0-.22,0-.36.01-.13,0-.27,0-.41.01-.14,0-.26.01-.36.01-.14,0-.21-.04-.21-.11,0-.05.04-.08.11-.08.06,0,.13,0,.2-.01.07,0,.14-.02.2-.04.13-.03.22-.11.27-.24s.09-.3.11-.49c.04-.28.05-.68.06-1.18,0-.5,0-1.07,0-1.71Z" fill="#292974"/>
          <path d="m187.19,80.62l-2.23-1.24c-.12.06-.27.12-.43.18s-.34.11-.52.15c-.19.04-.38.07-.57.09-.2.02-.38.03-.56.03-.92,0-1.71-.16-2.37-.48-.66-.32-1.2-.73-1.62-1.24s-.73-1.07-.92-1.68-.29-1.23-.29-1.83c0-.35.04-.73.13-1.13.09-.4.23-.79.41-1.18.19-.39.42-.75.7-1.1.28-.35.61-.66,1-.92.39-.27.83-.48,1.33-.63s1.05-.23,1.66-.23c.75,0,1.44.12,2.07.35.64.23,1.19.56,1.66.99.47.43.83.95,1.1,1.57.27.62.4,1.31.4,2.08,0,.58-.08,1.12-.25,1.6-.16.48-.37.91-.6,1.29s-.5.7-.76.96c-.27.27-.52.47-.74.61l2.73,1.41c.73.37,1.4.67,2.01.88.61.21,1.16.37,1.64.47.48.1.88.16,1.21.19.33.02.58.03.75.03.34,0,.74-.04,1.22-.12.47-.08.94-.21,1.4-.4.04-.02.08-.03.11-.04.03,0,.05-.01.07-.01.05,0,.08.03.08.08s-.04.1-.11.13c-.19.09-.42.19-.7.29s-.6.21-.96.3c-.36.09-.75.17-1.18.23-.43.06-.89.09-1.38.09-.81,0-1.65-.15-2.53-.44s-1.86-.74-2.95-1.34Zm-8.26-6.38c0,.77.11,1.47.33,2.1.22.63.52,1.17.9,1.61.39.44.84.78,1.35,1.02.51.24,1.07.36,1.68.36.3,0,.66-.06,1.08-.17.42-.11.82-.33,1.2-.66s.71-.79.98-1.39c.27-.6.41-1.38.41-2.35,0-.8-.11-1.5-.34-2.11-.23-.61-.53-1.12-.9-1.54-.37-.41-.8-.72-1.29-.94-.49-.21-.99-.32-1.52-.32-.56,0-1.08.09-1.55.27-.47.18-.88.46-1.23.82s-.62.82-.81,1.37c-.19.55-.29,1.18-.29,1.91Z" fill="#292974"/>
          <path d="m190.64,75.39v-4c0-.2,0-.36,0-.48,0-.12-.01-.23-.02-.34-.02-.23-.06-.4-.13-.52-.07-.12-.22-.2-.44-.24-.05-.02-.13-.03-.22-.03-.09,0-.17,0-.23,0-.07,0-.11-.03-.11-.08,0-.07.07-.11.21-.11.15,0,.31,0,.47,0,.16,0,.32,0,.46.01.15,0,.27,0,.38.01.11,0,.18,0,.2,0s.09,0,.2,0c.11,0,.22,0,.36-.01.13,0,.27,0,.4-.01.14,0,.25,0,.35,0,.14,0,.21.04.21.11,0,.05-.04.08-.11.08-.04,0-.09,0-.14,0-.05,0-.11.02-.19.03-.18.03-.3.1-.37.23-.07.12-.11.3-.13.53,0,.11-.02.22-.02.34,0,.12,0,.28,0,.48v3.92c0,.48.02.89.07,1.24.05.35.12.65.21.91s.2.48.32.66c.12.18.26.34.4.47.33.31.65.51.97.6s.66.13,1.05.13c.41,0,.8-.09,1.17-.27.37-.18.68-.41.92-.69.31-.38.52-.85.62-1.4s.15-1.17.15-1.86v-3.72c0-.2,0-.36,0-.48,0-.12-.01-.23-.02-.34-.02-.23-.06-.4-.13-.52-.07-.12-.22-.2-.44-.24-.05-.02-.13-.03-.22-.03-.09,0-.17,0-.23,0-.07,0-.11-.03-.11-.08,0-.07.07-.11.21-.11.15,0,.31,0,.47,0,.16,0,.31,0,.44.01.13,0,.25,0,.34.01.09,0,.15,0,.17,0,.03,0,.08,0,.16,0,.08,0,.17,0,.29-.01.11,0,.23,0,.35-.01.12,0,.23,0,.33,0,.14,0,.21.04.21.11,0,.05-.04.08-.11.08-.04,0-.09,0-.14,0-.05,0-.11.02-.19.03-.18.04-.3.12-.37.24s-.11.29-.13.52c0,.11-.02.22-.02.34,0,.12,0,.28,0,.48v3.48c0,.36-.01.73-.04,1.1-.03.37-.08.73-.17,1.08-.09.35-.21.68-.37.98-.16.31-.37.58-.64.82-.24.21-.48.38-.73.51-.24.13-.48.23-.71.3-.23.07-.46.12-.68.14-.22.02-.43.03-.63.03-.12,0-.28,0-.49-.02-.21-.01-.44-.05-.7-.11-.26-.06-.52-.16-.79-.29-.27-.13-.53-.3-.77-.53-.16-.16-.31-.34-.45-.54-.14-.2-.26-.44-.37-.72-.1-.28-.19-.6-.24-.96-.06-.36-.08-.79-.08-1.28Z" fill="#292974"/>
          <path d="m203.57,73.45v2.34c0,.64,0,1.21,0,1.71s.02.89.06,1.18c.02.2.06.36.12.49.06.13.2.21.4.24.1.02.21.03.33.04s.21.01.27.01c.07,0,.11.03.11.08,0,.07-.07.11-.21.11-.19,0-.37,0-.56,0-.19,0-.36,0-.51-.01-.16,0-.28,0-.39-.01-.1,0-.16,0-.18,0-.02,0-.08,0-.18,0-.1,0-.22,0-.35.01-.13,0-.27,0-.41.01-.14,0-.26,0-.36,0-.14,0-.21-.04-.21-.11,0-.05.04-.08.11-.08.06,0,.13,0,.2-.01.07,0,.14-.02.2-.04.13-.03.22-.11.27-.24s.09-.3.11-.49c.04-.28.05-.68.06-1.18,0-.5,0-1.07,0-1.71v-4.39c0-.2,0-.36,0-.48,0-.12-.01-.23-.02-.34-.03-.43-.18-.68-.45-.75-.07-.02-.15-.03-.23-.04s-.14-.01-.19-.01c-.07,0-.11-.03-.11-.08,0-.07.07-.11.21-.11.11,0,.24,0,.39,0,.15,0,.29,0,.43.01.13,0,.25,0,.35.01.1,0,.16,0,.18,0,.02,0,.08,0,.18,0,.1,0,.22,0,.35-.01.13,0,.27,0,.41-.01.14,0,.26,0,.36,0,.14,0,.21.04.21.11,0,.05-.04.08-.11.08-.04,0-.09,0-.14,0-.05,0-.11.02-.19.03-.18.04-.3.11-.37.23-.07.12-.11.29-.13.53,0,.11-.02.22-.02.34,0,.12,0,.28,0,.48v2.05Z" fill="#292974"/>
          <path d="m211.13,70.17v5.62c0,.64,0,1.21,0,1.71,0,.5.02.89.06,1.18.02.2.06.36.12.49.06.13.2.21.4.24.1.02.21.03.33.04.12,0,.21.01.27.01.07,0,.11.03.11.08,0,.07-.07.11-.21.11-.19,0-.37,0-.56,0-.19,0-.36,0-.51-.01-.16,0-.28,0-.39-.01-.1,0-.16,0-.18,0s-.08,0-.18,0c-.1,0-.22,0-.35.01-.13,0-.27,0-.41.01s-.26,0-.36,0c-.14,0-.21-.04-.21-.11,0-.05.04-.08.11-.08.06,0,.13,0,.2-.01.07,0,.14-.02.2-.04.13-.03.22-.11.27-.24s.09-.3.11-.49c.04-.28.06-.68.06-1.18,0-.5,0-1.07,0-1.71v-5.62l-1.97.03c-.2,0-.38,0-.53.03-.15.02-.27.04-.38.07s-.2.07-.27.13c-.07.05-.13.12-.19.2-.07.12-.12.2-.15.26-.03.06-.06.11-.07.15-.04.09-.08.13-.13.13-.04,0-.07-.04-.07-.12,0-.04.01-.12.04-.26s.06-.29.09-.45c.04-.16.07-.31.1-.44.03-.13.05-.21.06-.24.02-.04.04-.1.06-.16.02-.06.05-.09.07-.09.04,0,.11.02.19.07.08.04.21.08.39.09.2.02.4.03.61.05.21.01.36.02.44.02h4.99c.21,0,.4,0,.55-.02.16-.01.29-.03.39-.05.1-.02.18-.03.24-.05.06-.01.11-.02.13-.02.04,0,.05.02.06.05,0,.03,0,.07,0,.11,0,.1,0,.22,0,.37,0,.15,0,.3-.01.45,0,.15,0,.29-.01.41,0,.12,0,.2,0,.23,0,.12-.03.17-.09.17-.04,0-.06-.01-.07-.04-.01-.03-.02-.09-.03-.19v-.15c-.02-.1-.05-.19-.11-.28-.05-.09-.14-.16-.26-.23-.12-.06-.28-.11-.49-.15-.21-.04-.47-.06-.79-.07l-1.67-.03Z" fill="#292974"/>
          <path d="m219.26,77.35v-1.14c0-.18,0-.33-.03-.46-.02-.13-.04-.25-.07-.36-.03-.11-.06-.2-.09-.29-.04-.09-.08-.18-.12-.28-.02-.04-.08-.14-.17-.31s-.22-.38-.37-.62c-.15-.24-.31-.51-.49-.8s-.34-.57-.51-.84c-.17-.27-.32-.52-.46-.74-.14-.23-.25-.4-.33-.51-.17-.25-.33-.45-.49-.62-.15-.16-.29-.29-.42-.37-.1-.07-.2-.12-.31-.16-.11-.04-.2-.05-.26-.05-.09,0-.13-.03-.13-.09s.06-.09.17-.09c.06,0,.16,0,.3,0,.14,0,.28,0,.43.01.15,0,.28,0,.39.01.12,0,.18,0,.2,0,.04,0,.18,0,.4-.02.22-.01.46-.02.72-.02.07,0,.12,0,.14.03.02.02.03.04.03.07s-.02.05-.05.06-.08.03-.15.06c-.12.06-.17.14-.17.24,0,.08.02.16.05.25.03.08.07.17.13.27.04.06.12.2.24.42.12.22.27.47.44.76.17.29.35.6.54.92.19.33.37.64.54.92.17.29.32.54.45.76.13.22.21.36.25.42.04-.09.12-.24.23-.45.11-.21.24-.45.39-.71.15-.26.31-.54.47-.83.16-.29.32-.57.47-.83.15-.26.28-.49.4-.69.12-.19.19-.33.24-.4.09-.14.15-.27.18-.38.03-.11.05-.21.05-.3,0-.1-.02-.18-.05-.25-.03-.07-.09-.11-.17-.13-.13-.04-.2-.09-.2-.13,0-.05.07-.08.21-.08.18,0,.35,0,.53.02.18.01.29.02.35.02.02,0,.08,0,.2,0,.12,0,.24,0,.38-.01.14,0,.27,0,.41-.01.14,0,.24,0,.3,0,.11,0,.17.03.17.08,0,.07-.06.11-.17.11-.07,0-.17.01-.28.04-.12.03-.23.08-.33.15-.13.08-.25.17-.34.27s-.21.23-.37.41c-.07.09-.18.24-.32.46-.14.22-.3.46-.48.74-.18.28-.36.58-.55.89-.19.32-.36.61-.52.9-.17.28-.31.54-.43.76s-.2.38-.24.48c-.1.24-.16.46-.17.68s-.03.43-.03.65v1.14c0,.11,0,.28,0,.53,0,.25.02.51.03.8.02.2.06.36.13.49.07.13.21.21.41.24.1.02.21.03.33.04.12,0,.21.01.27.01.07,0,.11.03.11.08,0,.07-.07.11-.21.11-.19,0-.37,0-.56,0-.19,0-.36,0-.51-.01-.15,0-.28,0-.38-.01-.1,0-.16,0-.18,0s-.08,0-.18,0c-.1,0-.22,0-.35.01-.13,0-.27,0-.41.01s-.26,0-.36,0c-.14,0-.21-.04-.21-.11,0-.05.04-.08.11-.08.06,0,.13,0,.2-.01.07,0,.14-.02.2-.04.13-.03.23-.11.29-.24.06-.13.1-.3.12-.49.02-.28.03-.55.03-.8s0-.43,0-.53Z" fill="#292974"/>
          <path d="m243.76,75.79v-4.39c0-.2,0-.36,0-.48,0-.12-.01-.23-.02-.34-.02-.23-.06-.4-.13-.52s-.22-.2-.44-.24c-.05-.02-.13-.03-.22-.03-.09,0-.17,0-.23,0-.07,0-.11-.03-.11-.08,0-.07.07-.11.21-.11.15,0,.31,0,.48,0,.17,0,.33,0,.47.01.15,0,.27,0,.37.01.1,0,.16,0,.18,0,.16,0,.36,0,.61-.02.25-.01.53-.02.84-.02.54,0,.98.07,1.33.22s.62.32.82.53c.2.21.33.42.41.65.07.23.11.42.11.59,0,.27-.04.52-.11.74-.07.22-.17.43-.29.62-.12.19-.25.37-.4.54-.15.17-.3.33-.46.49.25.08.51.2.78.35.27.16.52.35.75.58.23.24.41.51.56.82s.22.66.22,1.05c0,.36-.07.71-.21,1.05-.14.35-.35.66-.63.93-.28.28-.63.5-1.06.67-.42.17-.92.25-1.49.25-.07,0-.2,0-.38-.01-.19,0-.38-.02-.57-.03-.2-.02-.37-.03-.53-.03-.16,0-.25,0-.28,0h-.17c-.1,0-.22,0-.36.01-.13,0-.27,0-.41.01-.14,0-.26.01-.36.01-.14,0-.21-.04-.21-.11,0-.05.04-.08.11-.08.06,0,.13,0,.2-.01.07,0,.14-.02.2-.04.13-.03.22-.11.27-.24s.09-.3.11-.49c.04-.28.05-.68.06-1.18,0-.5,0-1.07,0-1.71Zm1.06-5.61v3.56c0,.07.03.12.09.15.04,0,.13.02.25.03.12.01.31.02.56.02.19,0,.34,0,.46,0s.23-.02.31-.05.16-.06.23-.11c.07-.04.13-.11.21-.19.14-.16.26-.35.35-.58.09-.23.13-.48.13-.76s-.03-.55-.1-.82c-.07-.27-.17-.52-.31-.74-.14-.22-.33-.39-.55-.53-.23-.13-.5-.2-.83-.2-.07,0-.17,0-.29.01s-.24.03-.35.05c-.11.03-.16.08-.16.15Zm0,4.22v2.5c0,.28,0,.53,0,.74,0,.21,0,.34,0,.39,0,.16.02.29.03.41,0,.11.03.2.06.28s.07.14.13.19.13.11.24.16c.09.04.19.08.3.11.11.03.22.05.33.06.11.01.21.02.31.03.09,0,.17,0,.23,0,.18,0,.37-.03.59-.09.22-.06.42-.16.61-.3s.35-.33.48-.58c.13-.24.19-.55.19-.92,0-.2-.02-.41-.06-.65s-.11-.48-.21-.72-.23-.47-.39-.69-.37-.42-.63-.6c-.23-.15-.43-.25-.61-.29s-.34-.08-.5-.09c-.04,0-.11-.02-.21-.02-.09,0-.19,0-.3,0h-.53c-.05,0-.08.03-.08.09Z" fill="#292974"/>
          <path d="m253.82,73.45v2.34c0,.64,0,1.21,0,1.71s.02.89.06,1.18c.02.2.06.36.12.49.06.13.2.21.4.24.1.02.21.03.33.04s.21.01.27.01c.07,0,.11.03.11.08,0,.07-.07.11-.21.11-.19,0-.37,0-.56,0-.19,0-.36,0-.51-.01-.16,0-.28,0-.39-.01-.1,0-.16,0-.18,0-.02,0-.08,0-.18,0-.1,0-.22,0-.35.01-.13,0-.27,0-.41.01-.14,0-.26,0-.36,0-.14,0-.21-.04-.21-.11,0-.05.04-.08.11-.08.06,0,.13,0,.2-.01.07,0,.14-.02.2-.04.13-.03.22-.11.27-.24s.09-.3.11-.49c.04-.28.05-.68.06-1.18,0-.5,0-1.07,0-1.71v-4.39c0-.2,0-.36,0-.48,0-.12-.01-.23-.02-.34-.03-.43-.18-.68-.45-.75-.07-.02-.15-.03-.23-.04s-.14-.01-.19-.01c-.07,0-.11-.03-.11-.08,0-.07.07-.11.21-.11.11,0,.24,0,.39,0,.15,0,.29,0,.43.01.13,0,.25,0,.35.01.1,0,.16,0,.18,0,.02,0,.08,0,.18,0,.1,0,.22,0,.35-.01.13,0,.27,0,.41-.01.14,0,.26,0,.36,0,.14,0,.21.04.21.11,0,.05-.04.08-.11.08-.04,0-.09,0-.14,0-.05,0-.11.02-.19.03-.18.04-.3.11-.37.23-.07.12-.11.29-.13.53,0,.11-.02.22-.02.34,0,.12,0,.28,0,.48v2.05Z" fill="#292974"/>
          <path d="m259.67,73.45v2.37c0,.97.02,1.7.05,2.17.04.47.12.76.24.88.05.05.12.1.19.14.08.04.17.07.29.09.12.02.27.04.45.05.18.01.4.02.66.02.35,0,.67-.02.95-.05.28-.04.5-.15.66-.35.09-.11.16-.23.23-.39.06-.15.1-.29.12-.41.02-.12.06-.17.12-.17.05,0,.08.07.08.2,0,.04,0,.11-.01.21s-.02.23-.05.36-.04.27-.07.41c-.02.14-.05.25-.07.35-.03.08-.05.14-.07.19-.02.04-.06.08-.11.11-.05.03-.13.04-.23.05-.1,0-.24.01-.42.01-.48,0-.9,0-1.25-.01-.36,0-.67-.02-.96-.03-.28-.02-.53-.03-.74-.03-.21,0-.42,0-.61,0-.03,0-.09,0-.19,0-.1,0-.22,0-.35,0-.13,0-.27.01-.41.02s-.25,0-.35,0c-.14,0-.21-.04-.21-.11,0-.05.04-.08.11-.08.06,0,.13,0,.2-.01.07,0,.14-.02.2-.04.13-.03.22-.11.27-.24s.09-.3.11-.49c.04-.28.05-.68.06-1.18,0-.5,0-1.07,0-1.71v-4.39c0-.2,0-.36,0-.48,0-.12-.01-.23-.02-.34-.02-.23-.06-.4-.13-.52s-.22-.2-.44-.24c-.05-.02-.13-.03-.22-.03-.09,0-.17,0-.23,0-.07,0-.11-.03-.11-.08,0-.07.07-.11.21-.11.15,0,.31,0,.48,0,.17,0,.33,0,.47.01.15,0,.27,0,.37.01.1,0,.16,0,.18,0,.02,0,.08,0,.2,0,.12,0,.25,0,.4-.01.15,0,.3,0,.46-.01.16,0,.28,0,.38,0,.14,0,.21.04.21.11,0,.05-.04.08-.11.08-.04,0-.11,0-.19,0-.08,0-.17.02-.25.03-.2.04-.33.11-.39.23-.07.12-.11.29-.13.53,0,.11-.02.22-.02.34,0,.12,0,.28,0,.48v2.05Z" fill="#292974"/>
          <path d="m267.54,73.45v2.37c0,.97.02,1.7.05,2.17.04.47.12.76.24.88.05.05.12.1.19.14.08.04.17.07.29.09.12.02.27.04.45.05.18.01.4.02.66.02.35,0,.67-.02.95-.05.28-.04.5-.15.66-.35.09-.11.16-.23.23-.39.06-.15.1-.29.12-.41.02-.12.06-.17.12-.17.05,0,.08.07.08.2,0,.04,0,.11-.01.21s-.02.23-.05.36-.04.27-.07.41c-.02.14-.05.25-.07.35-.03.08-.05.14-.07.19-.02.04-.06.08-.11.11-.05.03-.13.04-.23.05-.1,0-.24.01-.42.01-.48,0-.9,0-1.25-.01-.36,0-.67-.02-.96-.03-.28-.02-.53-.03-.74-.03-.21,0-.42,0-.61,0-.03,0-.09,0-.19,0-.1,0-.22,0-.35,0-.13,0-.27.01-.41.02s-.25,0-.35,0c-.14,0-.21-.04-.21-.11,0-.05.04-.08.11-.08.06,0,.13,0,.2-.01.07,0,.14-.02.2-.04.13-.03.22-.11.27-.24s.09-.3.11-.49c.04-.28.05-.68.06-1.18,0-.5,0-1.07,0-1.71v-4.39c0-.2,0-.36,0-.48,0-.12-.01-.23-.02-.34-.02-.23-.06-.4-.13-.52s-.22-.2-.44-.24c-.05-.02-.13-.03-.22-.03-.09,0-.17,0-.23,0-.07,0-.11-.03-.11-.08,0-.07.07-.11.21-.11.15,0,.31,0,.48,0,.17,0,.33,0,.47.01.15,0,.27,0,.37.01.1,0,.16,0,.18,0,.02,0,.08,0,.2,0,.12,0,.25,0,.4-.01.15,0,.3,0,.46-.01.16,0,.28,0,.38,0,.14,0,.21.04.21.11,0,.05-.04.08-.11.08-.04,0-.11,0-.19,0-.08,0-.17.02-.25.03-.2.04-.33.11-.39.23-.07.12-.11.29-.13.53,0,.11-.02.22-.02.34,0,.12,0,.28,0,.48v2.05Z" fill="#292974"/>
          <path d="m275.41,73.45v2.34c0,.64,0,1.21,0,1.71s.02.89.06,1.18c.02.2.06.36.12.49.06.13.2.21.4.24.1.02.21.03.33.04s.21.01.27.01c.07,0,.11.03.11.08,0,.07-.07.11-.21.11-.19,0-.37,0-.56,0-.19,0-.36,0-.51-.01-.16,0-.28,0-.39-.01-.1,0-.16,0-.18,0-.02,0-.08,0-.18,0-.1,0-.22,0-.35.01-.13,0-.27,0-.41.01-.14,0-.26,0-.36,0-.14,0-.21-.04-.21-.11,0-.05.04-.08.11-.08.06,0,.13,0,.2-.01.07,0,.14-.02.2-.04.13-.03.22-.11.27-.24s.09-.3.11-.49c.04-.28.05-.68.06-1.18,0-.5,0-1.07,0-1.71v-4.39c0-.2,0-.36,0-.48,0-.12-.01-.23-.02-.34-.03-.43-.18-.68-.45-.75-.07-.02-.15-.03-.23-.04s-.14-.01-.19-.01c-.07,0-.11-.03-.11-.08,0-.07.07-.11.21-.11.11,0,.24,0,.39,0,.15,0,.29,0,.43.01.13,0,.25,0,.35.01.1,0,.16,0,.18,0,.02,0,.08,0,.18,0,.1,0,.22,0,.35-.01.13,0,.27,0,.41-.01.14,0,.26,0,.36,0,.14,0,.21.04.21.11,0,.05-.04.08-.11.08-.04,0-.09,0-.14,0-.05,0-.11.02-.19.03-.18.04-.3.11-.37.23-.07.12-.11.29-.13.53,0,.11-.02.22-.02.34,0,.12,0,.28,0,.48v2.05Z" fill="#292974"/>
          <path d="m278.29,74.61c0-.35.04-.73.13-1.13.09-.4.23-.79.41-1.18.19-.39.42-.75.7-1.1.28-.35.61-.66,1-.92.39-.27.83-.48,1.33-.63s1.05-.23,1.66-.23c.75,0,1.44.12,2.07.35.64.23,1.19.56,1.66.99.47.43.83.95,1.1,1.57.27.62.4,1.31.4,2.08s-.13,1.45-.38,2.11-.61,1.24-1.07,1.73-1.02.88-1.68,1.17-1.38.43-2.18.43c-.91,0-1.7-.16-2.35-.48-.65-.32-1.19-.73-1.6-1.24-.42-.5-.72-1.07-.92-1.68s-.29-1.23-.29-1.83Zm1.26-.37c0,.77.11,1.47.33,2.1.22.63.52,1.17.9,1.61.39.44.84.78,1.35,1.02.51.24,1.07.36,1.68.36.3,0,.66-.06,1.08-.17.42-.11.82-.33,1.2-.66s.71-.79.98-1.39c.27-.6.41-1.38.41-2.35,0-.8-.11-1.5-.34-2.11-.23-.61-.53-1.12-.9-1.54-.37-.41-.8-.72-1.29-.94-.49-.21-.99-.32-1.52-.32-.56,0-1.08.09-1.55.27-.47.18-.88.46-1.23.82s-.62.82-.81,1.37c-.19.55-.29,1.18-.29,1.91Z" fill="#292974"/>
          <path d="m291.76,71.47l.17,6.37c0,.28.02.5.05.68.02.18.05.33.09.45.04.12.09.21.15.27.06.06.14.11.23.13.12.04.25.06.38.07.13,0,.22.01.29.01.07,0,.11.03.11.08,0,.07-.08.11-.24.11-.38,0-.7,0-.94-.02-.25-.01-.4-.02-.46-.02s-.22,0-.46.02c-.24.01-.52.02-.82.02-.14,0-.21-.04-.21-.11,0-.05.04-.08.11-.08.05,0,.13,0,.24-.01s.21-.03.31-.07c.17-.04.28-.19.33-.43s.07-.66.07-1.26v-7.62c.01-.26.02-.43.05-.52.02-.09.06-.14.11-.14s.13.05.22.16c.09.11.17.2.25.27.05.05.21.22.46.5s.57.63.96,1.04.83.89,1.31,1.41c.48.52.98,1.06,1.5,1.61.33.35.66.71.99,1.08.33.36.65.71.94,1.02.29.32.55.6.77.84.22.24.39.42.49.52l-.15-6.75c0-.43-.05-.74-.11-.92-.07-.18-.2-.29-.41-.35-.12-.03-.25-.04-.38-.05-.13,0-.22-.01-.27-.01-.07,0-.11-.03-.11-.09s.09-.09.27-.09c.15,0,.3,0,.45,0,.15,0,.28,0,.41.01.13,0,.24,0,.33.01.09,0,.16,0,.19,0,.07,0,.21,0,.41-.02.2-.01.44-.02.72-.02.16,0,.24.03.24.09s-.05.09-.15.09c-.04,0-.08,0-.13,0-.05,0-.11.02-.19.03-.22.04-.36.15-.41.33-.05.17-.08.46-.08.86l-.03,7.79c0,.22,0,.39,0,.52,0,.12-.01.22-.02.28,0,.06-.02.1-.03.12s-.03.03-.06.03-.06-.01-.1-.03c-.04-.02-.1-.06-.17-.13-.07-.06-.16-.15-.27-.26l-.43-.43s-.17-.17-.41-.41-.52-.53-.86-.88-.7-.73-1.09-1.14c-.39-.41-.76-.8-1.12-1.18-.39-.42-.77-.83-1.14-1.23-.37-.4-.71-.78-1.02-1.12s-.58-.64-.81-.9c-.23-.25-.4-.44-.51-.57Z" fill="#292974"/>
          <path d="m305.1,79.83c-.31,0-.62-.03-.92-.08-.3-.05-.59-.14-.86-.27-.1-.04-.16-.09-.17-.15s-.03-.17-.03-.35c0-.34,0-.63.03-.88.02-.25.03-.42.04-.53,0-.14.04-.21.11-.21s.09.05.09.15c0,.06,0,.13,0,.22,0,.08.02.18.03.27.05.25.14.46.27.63s.28.31.46.42.38.18.59.23c.21.05.43.07.65.07.32,0,.6-.05.84-.16s.44-.24.59-.41.27-.35.35-.57c.08-.21.12-.43.12-.64,0-.23-.03-.44-.08-.63-.05-.19-.14-.38-.26-.56-.12-.18-.28-.37-.47-.56-.2-.19-.43-.41-.72-.65l-.6-.49c-.35-.29-.64-.56-.86-.81-.22-.25-.4-.49-.53-.73-.13-.24-.22-.46-.27-.68-.05-.22-.07-.44-.07-.67,0-.36.06-.68.19-.97.13-.29.31-.54.55-.76.24-.21.53-.38.86-.49s.72-.17,1.14-.17c.26,0,.49.01.68.03.2.02.38.06.55.1.12.03.22.04.29.05s.13.01.18.01c.09,0,.13.03.13.09,0,.04,0,.17-.03.39-.02.23-.03.57-.03,1.02,0,.2-.03.31-.09.31-.04,0-.07-.02-.08-.05s-.02-.07-.03-.13c0-.08-.03-.19-.06-.34-.03-.15-.07-.25-.11-.33-.02-.04-.06-.09-.12-.17-.06-.08-.16-.16-.29-.24-.13-.08-.29-.15-.5-.21-.2-.06-.46-.09-.76-.09-.46,0-.85.14-1.16.41s-.47.65-.47,1.14c0,.19.02.36.07.53.05.16.13.33.26.5.12.17.29.35.5.54.21.2.47.42.79.67l.37.29c.39.31.71.6.96.86.25.27.45.52.6.76.15.24.25.49.3.73.05.24.08.5.08.76,0,.13-.02.29-.05.48-.03.19-.09.38-.17.58-.08.2-.2.41-.35.6-.15.2-.33.38-.56.54-.28.2-.6.35-.94.43s-.7.13-1.06.13Z" fill="#292974"/>
        </g>
        <g>
          <g>
            <path d="m230.98,71.41c0,.42,0,.75.02.93.01.13.04.22.17.24.06,0,.16.02.22.02.06,0,.07.01.07.04,0,.03-.03.04-.1.04-.28,0-.55-.01-.67-.01s-.39.01-.56.01c-.06,0-.09,0-.09-.04,0-.02.02-.04.07-.04.07,0,.12,0,.16-.02.09-.02.11-.11.13-.24.02-.18.02-.51.02-.93v-.77c0-.67,0-.79,0-.93,0-.15-.04-.22-.19-.25-.04,0-.11-.01-.17-.01-.04,0-.07,0-.07-.04,0-.04.03-.04.1-.04.11,0,.24,0,.35,0,.11,0,.21,0,.28,0,.17,0,1.06,0,1.16,0,.08,0,.14,0,.18-.02.03,0,.05-.03.07-.03.02,0,.03.02.03.04,0,.03-.02.08-.04.2,0,.04-.01.3-.02.35,0,.04-.01.06-.04.06s-.04-.02-.04-.07c0-.04,0-.11-.03-.17-.03-.06-.12-.13-.29-.13h-.67s-.04,0-.04.05v1.09s0,.04.03.04h.56c.07,0,.14,0,.2,0,.08,0,.14-.02.19-.08.02-.03.03-.04.06-.04.02,0,.03.01.03.04s-.02.14-.04.27c0,.09-.02.29-.02.32,0,.04,0,.08-.04.08-.03,0-.04-.03-.04-.06s0-.08-.03-.14c-.02-.06-.09-.14-.22-.16-.11-.01-.57-.01-.65-.01-.02,0-.03,0-.03.04v.35Z" fill="#292974"/>
            <path d="m232.67,71.02c0-.75.49-1.72,1.81-1.72,1.09,0,1.77.64,1.77,1.64s-.7,1.79-1.81,1.79c-1.26,0-1.76-.94-1.76-1.72Zm2.96.08c0-.98-.57-1.59-1.28-1.59-.5,0-1.08.28-1.08,1.37,0,.91.5,1.63,1.34,1.63.31,0,1.02-.15,1.02-1.41Z" fill="#292974"/>
            <path d="m237.16,70.64c0-.67,0-.79,0-.93,0-.15-.04-.22-.19-.25-.04,0-.11-.01-.17-.01-.05,0-.07,0-.07-.04s.03-.04.1-.04c.23,0,.51.01.6.01.15,0,.48-.01.62-.01.28,0,.57.03.81.19.12.08.3.31.3.6,0,.32-.14.62-.58.98.39.49.69.88.95,1.15.25.25.42.29.49.3.05,0,.09.01.12.01s.05.01.05.04c0,.03-.03.04-.08.04h-.42c-.25,0-.35-.02-.47-.08-.19-.1-.36-.31-.6-.64-.17-.24-.38-.54-.43-.6-.02-.03-.05-.03-.08-.03h-.38s-.03,0-.03.03v.06c0,.41,0,.75.02.94.01.13.04.22.17.24.07,0,.16.02.21.02.04,0,.05.01.05.04,0,.03-.03.04-.09.04-.25,0-.58-.01-.64-.01-.08,0-.36.01-.54.01-.06,0-.09-.01-.09-.04,0-.02.02-.04.07-.04.07,0,.12,0,.16-.02.09-.02.11-.11.13-.24.02-.18.02-.53.02-.93v-.77Zm.52.35s0,.07.04.08c.09.03.22.04.33.04.17,0,.23-.02.31-.08.13-.1.26-.3.26-.66,0-.62-.41-.8-.67-.8-.11,0-.19,0-.23.02-.03,0-.04.03-.04.06v1.33Z" fill="#292974"/>
          </g>
          <g>
            <path d="m230.8,76.14c0-1.14,0-1.35-.01-1.59-.02-.25-.08-.37-.32-.43-.06-.01-.19-.02-.29-.02-.08,0-.13-.01-.13-.07s.05-.07.17-.07c.4,0,.87.02,1.02.02.37,0,.66-.02.91-.02,1.36,0,1.6.73,1.6,1.12,0,.61-.35.98-.76,1.31.61.21,1.36.74,1.36,1.62,0,.8-.62,1.63-2,1.63-.09,0-.31-.01-.52-.02-.22-.01-.45-.02-.56-.02-.08,0-.25,0-.43,0-.17,0-.37.01-.52.01-.1,0-.15-.02-.15-.08,0-.04.03-.06.12-.06.11,0,.2-.01.27-.03.15-.03.19-.19.22-.41.04-.31.04-.91.04-1.6v-1.32Zm.9.13c0,.06.02.08.05.08.07.01.18.02.35.02.25,0,.41-.03.54-.14.2-.16.31-.43.31-.79,0-.5-.29-1.16-.94-1.16-.1,0-.17,0-.25.01-.05.01-.07.04-.07.13v1.85Zm.99.6c-.16-.11-.33-.17-.62-.18-.13,0-.21,0-.32,0-.03,0-.04.02-.04.05v1.78c0,.5.02.62.26.72.2.08.38.09.55.09.34,0,.91-.18.91-.96,0-.46-.16-1.09-.73-1.49Z" fill="#292974"/>
            <path d="m236.71,77.69c0-.4-.07-.57-.17-.79-.05-.12-1.06-1.77-1.32-2.16-.19-.28-.38-.46-.52-.55-.1-.05-.22-.1-.31-.1-.06,0-.11-.01-.11-.07,0-.04.05-.07.14-.07.13,0,.7.02.94.02.16,0,.46-.02.8-.02.08,0,.11.02.11.07s-.05.05-.16.08c-.07.01-.11.07-.11.13s.04.15.09.25c.11.23,1.15,2.03,1.27,2.24.07-.18,1.02-1.83,1.12-2.06.08-.17.11-.29.11-.39,0-.08-.03-.16-.16-.19-.07-.01-.13-.03-.13-.08,0-.05.04-.07.13-.07.25,0,.49.02.7.02.17,0,.66-.02.8-.02.08,0,.13.01.13.06,0,.05-.06.08-.14.08-.07,0-.22.03-.33.09-.16.08-.24.17-.4.37-.25.3-1.3,2.06-1.43,2.38-.11.27-.11.5-.11.75v.61c0,.12,0,.43.02.75.01.22.08.38.31.41.1.02.27.03.37.03.08,0,.12.02.12.06,0,.05-.06.08-.16.08-.47,0-.94-.02-1.15-.02-.19,0-.66.02-.94.02-.1,0-.17-.01-.17-.08,0-.04.04-.06.12-.06.1,0,.2-.01.26-.03.15-.03.22-.19.23-.41.02-.31.02-.63.02-.75v-.61Z" fill="#292974"/>
          </g>
          <g>
            <path d="m228.6,79.06s0,.02.02.02l.33.12c.06.02.11.03.14.03.04,0,.07-.02.07-.09v-.03s0-.03.02-.03c.02,0,.02.01.02.04,0,.07,0,.17,0,.24,0,.03,0,.15,0,.27,0,.03,0,.04-.02.04-.01,0-.02,0-.02-.03,0-.02,0-.05,0-.07-.01-.11-.09-.15-.21-.19l-1.44-.57c-.07-.03-.09-.04-.09-.06,0-.02.02-.03.07-.06.13-.05,1.06-.42,1.41-.57.21-.09.24-.15.25-.2,0-.03,0-.07,0-.1,0-.02,0-.03.02-.03.02,0,.02.02.02.11s0,.25,0,.43c0,.04,0,.07-.02.07-.01,0-.02,0-.02-.03,0-.02-.02-.03-.05-.02l-.49.18s-.02.01-.02.02v.51Zm-.11-.47s0-.01-.01-.01l-.57.21s-.02,0-.02.01.01.01.02.01l.56.21s.02,0,.02,0v-.42Z" fill="#292974"/>
            <path d="m227.47,77.42s-.06-.02-.06-.04.01-.03.07-.06l1.29-.62-1.31-.62s-.05-.03-.05-.05.02-.03.07-.04l1.42-.21c.14-.02.21-.04.23-.11.02-.07.02-.11.02-.14,0-.02,0-.04.02-.04.02,0,.03.03.03.06,0,.06,0,.37-.01.46,0,.05-.01.07-.03.07-.01,0-.02,0-.03-.02,0-.01-.03-.02-.1-.01l-1.01.14h0s1.04.51,1.04.51c.11.05.13.06.13.08s-.05.04-.11.08c-.11.05-.46.24-.52.26-.05.02-.34.16-.51.24h0s.91.13.91.13c.04,0,.07,0,.11,0,.04,0,.06-.03.07-.07,0-.04.01-.07.01-.1,0-.02,0-.03.02-.03.02,0,.03.02.03.06,0,.1,0,.2,0,.24s0,.15,0,.23c0,.02,0,.04-.03.04-.01,0-.02-.01-.02-.04,0-.02,0-.03,0-.07-.01-.06-.1-.08-.18-.09l-1.49-.23Z" fill="#292974"/>
            <path d="m228.33,75.37c-.39,0-.9-.26-.9-.95,0-.57.33-.92.86-.92s.94.37.94.95c0,.66-.49.92-.9.92Zm.04-1.55c-.51,0-.83.3-.83.67,0,.26.15.56.72.56.48,0,.85-.26.85-.7,0-.16-.08-.53-.74-.53Z" fill="#292974"/>
            <path d="m228.88,72.9c.18,0,.24-.03.25-.08.01-.04.02-.08.02-.12,0-.02,0-.04.02-.04.02,0,.02.02.02.05,0,.15,0,.24,0,.28,0,.02,0,.13,0,.25,0,.03,0,.05-.02.05-.01,0-.02-.01-.02-.04,0-.03,0-.07-.01-.1-.02-.06-.08-.07-.28-.07l-1.35-.02s-.08,0-.08-.03c0-.03.03-.05.07-.08.03-.03.4-.38.73-.71.16-.16.49-.46.52-.5h0s-1.03.01-1.03.01c-.14,0-.18.02-.21.08-.01.03-.01.09-.01.12,0,.03,0,.04-.02.04-.02,0-.02-.03-.02-.06,0-.12,0-.23,0-.28,0-.02,0-.11,0-.22,0-.03,0-.05.02-.05.01,0,.02.01.02.04,0,.02,0,.04,0,.07.02.06.07.08.2.08l1.44.03c.05,0,.07,0,.07.03,0,.03-.03.05-.05.08-.14.14-.44.44-.67.67-.25.25-.53.5-.58.54h0s.96-.02.96-.02Z" fill="#292974"/>
            <path d="m229.04,69.49c.06,0,.07,0,.08.03.08.15.1.37.1.55,0,.56-.27,1.06-.9,1.06-.37,0-.62-.19-.75-.4-.13-.22-.15-.42-.15-.62,0-.16.03-.36.04-.41,0-.05.02-.13.03-.18,0-.03.01-.03.03-.03.03,0,.09.02.38.02.04,0,.05,0,.05.03,0,.02-.01.02-.03.02-.05,0-.13.02-.19.08-.07.07-.18.25-.18.51,0,.13,0,.29.14.45.11.13.28.21.56.21.49,0,.86-.31.86-.8,0-.06,0-.14-.02-.19-.02-.03-.05-.04-.08-.04h-.21c-.12,0-.2,0-.27,0-.08,0-.11.02-.13.1,0,.02,0,.06,0,.09,0,.02,0,.03-.02.03-.02,0-.02-.02-.02-.05,0-.12,0-.26,0-.33s0-.19,0-.27c0-.03,0-.05.02-.05.01,0,.02.01.02.03,0,.02,0,.03,0,.06.01.06.05.08.13.09.07,0,.16,0,.27,0h.25Z" fill="#292974"/>
          </g>
        </g>
      </g>
    </g>
  </g>
</svg>